<?xml version="1.0" encoding="utf-8"?>
<!-- Generator: Adobe Illustrator 23.0.1, SVG Export Plug-In . SVG Version: 6.00 Build 0)  -->
<svg version="1.1" id="Слой_1" xmlns="http://www.w3.org/2000/svg" xmlns:xlink="http://www.w3.org/1999/xlink" x="0px" y="0px"
	 viewBox="0 0 208 46" style="enable-background:new 0 0 208 46;" xml:space="preserve">
<style type="text/css">
	.st0{fill:#3D0BB8;}
</style>
<path class="st0" d="M0,13.2c2.3-3.1,4.6-6.3,6.9-9.4C7.7,2.8,8.8,2,11,0c-0.6,4.9-1,8.4-1.4,11.9c-0.2,1.5-0.7,3-0.5,4.4
	c0.4,2.7,0.4,6.2,4.4,5.8c3.5-0.4,6.8-1.7,6.5-6.3c-0.1-2-0.4-4.1,0.1-5.9c0.5-1.4,2.2-2.4,3.3-3.6c0.8,1.2,1.8,2.3,2.4,3.6
	c0.4,0.8,0.4,2.2,0,2.9c-4.6,7.5-3.3,16.1-4.8,24.1c-0.7,3.8-1.7,7.4-5.9,8.1c-2.8,0.5-9.1-5-9.3-9.1C7,36.8,8,37.8,9.2,38.5
	c2.2,1.3,4.3,2.9,6.7,3.3c0.7,0.1,2.6-3.1,2.9-5c0.8-4.5,1-9.2,1.3-12.7c-3.6-0.2-7.5,0.5-10.1-0.9c-3.7-2.1-4-7.9-3-15.7
	c-1.6,2.4-3.2,4.8-5,7.1c-0.5,0.6-1.3,1-2,1.5C0,15.2,0,14.2,0,13.2z"/>
<path class="st0" d="M208,41.2c-3.5,1.6-7.2,2.9-9.7-1.4c-2.2-3.9,0.4-10.5,6-14c-1.3,3.1-2.3,5.4-3.3,7.6c2.3,1.9,4.6,3.9,6.9,5.8
	C208,39.9,208,40.5,208,41.2z"/>
<path class="st0" d="M49.4,44.4c-4.7-4.3-1.1-8.8-1-13c-0.4-0.2-0.9-0.3-1.3-0.5c-1.4,3.3-2.7,6.5-4.1,9.8c-0.4,0.9-0.5,2.6-0.8,2.6
	C37,44,31.7,45.1,26.6,44.6c-1.1-0.1-2.8-6.1-2.4-9.1c1.3-10.1,4.1-19.8,9.8-28.4c2-3,4.3-5.1,8.2-2.8c3.9,2.3,5.1,5.9,2.6,9.6
	C41.3,19,37.3,23.8,34,28c2.1,4.5,4.1,8.8,6,13c1.4-3.5,2.4-7.1,4.4-10.2c0.9-1.4,3.5-1.7,5.3-2.6c0.4,1.6,1.3,3.3,1.2,4.8
	C50.7,36.8,50,40.4,49.4,44.4z M28.1,27.2c0.7,0.3,1.5,0.6,2.2,0.9c4-4.9,8.3-9.7,11.8-15C43,11.9,41.4,9,41,6.8
	c-1.7,0.8-4.4,1-5,2.3C33.1,15,30.7,21.2,28.1,27.2z M33.5,31.8c-0.7,0.2-1.4,0.3-2.1,0.5c-0.4,3.6-6.8,4.5-3.8,9.8
	c3.3,0.7,6.7-0.2,7.9-3.5C36.2,36.8,34.3,34.1,33.5,31.8z"/>
<path class="st0" d="M144.5,40.4c-5.6,4.9-8.5,4.1-10.9-2.6c-2-0.2-3.9-0.3-6.1-0.5c-0.7,2.1-1.4,4.4-2.1,6.8
	c-0.5-0.1-1.1-0.2-1.6-0.3c0.7-5.2,1.3-10.4,2-15.6c0.6,0,1.1,0,1.7,0c0.2,1,0.3,2,0.7,2.9c0.6,1.4,1.4,3.8,2,3.8
	c1.6,0,3.3-0.9,4.6-2c1.4-1.3,2.2-3.1,3.3-4.7c0.6,0.2,1.2,0.4,1.8,0.6c-0.5,1.9-0.5,4.3-1.7,5.7c-1.9,2.3-3.2,4.5-0.1,5.9
	c1.4,0.6,4.3-1,5.9-2.2c1.1-0.8,1.1-2.9,1.8-4.4c0.9-1.8,1.7-4.9,2.9-5c2.5-0.3,5.6,0.2,7.6,1.7c1.6,1.1,2.8,4.4,2.4,6.3
	C157.2,43,149.7,44.9,144.5,40.4z M148.6,41.1c4.1-1.7,8.3-2.3,7.2-7.5c-0.2-1-3.1-2.6-4.1-2.2C147.6,33,147.5,36.5,148.6,41.1z"/>
<path class="st0" d="M91.3,42.3c-4.4,0.5-7.4,0.8-10.4,1.2c0.4-2.9,0.9-5.8,1.3-8.7c0.3-1.7,0.5-3.3,0.8-5.4
	c-3.4,3.2-6.1,5.8-8.8,8.3c-0.5-0.5-0.9-0.9-1.4-1.4c1.9-1.7,3.7-3.5,5.7-5.3c-1.1-0.7-2.3-1.4-4.2-2.6c4.1-1.3,7.2-2.2,10,0.6
	c4.6,4.7-1.8,7.9-1.6,12c4.8,0.5,6.5-1.4,7.5-6.2c0.6-2.6,2.4-5.4,4.5-7.1c1.1-0.9,3.9,0.4,7,0.9c-3.3,4.6-5.8,8-9.3,12.8
	c3.9-0.9,6.5-1.5,9.6-2.2C97,45.1,95.2,44.9,91.3,42.3z"/>
<path class="st0" d="M183.2,39.5c0-2.2,0-5.1,0-8.7c-3.8,1.7-5.1,3.6-5.3,7.1c-0.2,2.6-1.8,5.1-2.9,8c-3.9-2.7-3.9-5.1-2.3-7.9
	c1.2-2.2,2.2-4.6,3.3-7.1c3.1,2.8,6.8-7.3,10.5,0c1.5-0.9,2.8-2.3,4.3-2.5c1.4-0.2,3.6,0.4,4.3,1.4c2.1,2.9-0.1,10-4,12.5
	c0.8-4.1,1.6-7.8,2.3-11.5c-0.5-0.4-1.1-0.7-1.6-1.1C188.9,32.9,186.1,36.1,183.2,39.5z"/>
<path class="st0" d="M69.2,32.2c-3.4,2.3-6.6,4.5-11.2,7.7c4.5,1.3,8.2,2.5,12.3,3.7c-8.3,5.3-11.5-3.5-16.9-5.2
	c2.6-3.3,4.8-7.1,8-9.7C64.8,25.8,66.9,29.1,69.2,32.2z"/>
<path class="st0" d="M118.7,41.4c-1.1-1.5-2-2.7-3.2-4.4c-3.6,1.8-7.2,3.5-11.9,5.8c1.1-4.6,2.1-9.2,3.2-13.7
	c0.7,0.2,1.4,0.3,2.1,0.5c-0.2,1.1-0.6,2.1-0.7,3.2c-0.1,1.3,0,2.6,0,4c6.7,0.3,9-4.6,11-9.8c0.5,0.2,0.9,0.4,1.4,0.6
	C120,32,119.4,36.4,118.7,41.4z"/>
<path class="st0" d="M169.8,35.8c-0.4-2.5-0.6-3.4-1-6.2c-2.4,2.8-5.8,5.2-5.4,6.4c0.9,2.6,3.7,4.5,5.8,6.9
	c-2.6,1.2-5.3,0.2-7.4-2.4c-2.1-2.6-2-5.7,0.4-7.9c2-1.8,4.7-3,7.4-4c0.6-0.2,2.6,1.6,2.9,2.7C172.8,32.2,171.3,33.5,169.8,35.8z"/>
</svg>
