<?xml version="1.0" encoding="utf-8"?>
<!-- Generator: Adobe Illustrator 23.0.1, SVG Export Plug-In . SVG Version: 6.00 Build 0)  -->
<svg version="1.1" id="Слой_1" xmlns="http://www.w3.org/2000/svg" xmlns:xlink="http://www.w3.org/1999/xlink" x="0px" y="0px"
	 viewBox="0 0 192.5 65" style="enable-background:new 0 0 192.5 65;" xml:space="preserve">
<style type="text/css">
	.st0{fill:#3D0BB8;}
</style>
<path class="st0" d="M171.5,26.7c-1,6.5-2,13-3,19.7c-0.6-1.3-1.3-2.8-2-4.1c-2.1,1-4.3,2.9-6.6,2.9c-1.8,0-3.5-2.5-5.1-3.7
	c-2.4,1.4-5.5,4.6-8.6,4.6c-2.3,0-4.6-4.1-7.2-6.6c-1.6,0-4.5,0-8.1,0c-0.4,2.4-0.9,5.6-1.6,9.6c-1-1.1-2.3-1.9-2.2-2.5
	c1.5-7.4,3.2-14.8,4.8-22.2c0.5,0.1,1.1,0.2,1.6,0.4c-0.3,2.5-0.1,5.1-1,7.4c-1.2,3-0.1,4.8,2.4,5.2c2.8,0.4,5.4-0.4,5.9-4.2
	c0.4-3,1.7-5.9,2.6-9c6.3,2.7,3.4,5.9,1.8,8.3c-2.3,3.3-3.1,6.5-1.3,10c0.5,1,3.1,2.1,3.6,1.7c3.7-2.7,7.9-5.1,8.3-10.6
	c0.2-3,1.3-5.9,2.1-8.9c0.5,0,0.9-0.1,1.4-0.1c0.3,1.1,1,2.2,0.8,3.2c-0.6,3.2-2,6.3-2.2,9.5c-0.1,2,1.3,4.1,2.1,6.1
	c1.9-1.8,4.5-3.2,5.6-5.4c1.3-2.7,1.2-6,2.1-9c0.3-1.1,1.6-2,2.5-3C170.8,26.1,171.2,26.4,171.5,26.7z"/>
<path class="st0" d="M16,15.1c-3.5,2.7-5.8,4.5-8.6,6.6c0-0.1-0.7-0.8-1.8-2.1c3.4-2.4,6.6-4.6,10.2-7.1C16.3,8.3,17,3.2,23,0
	c-1.8,4-3.2,7.3-5.2,11.8C30.1,9.9,41,5.4,51.9,11c0.9,0.5,1.5,1.8,2.9,3.6c-10.1-4.6-19-4.2-36.3,0.4c-0.5,7.3-0.6,14.6-1.7,21.7
	c-0.8,4.9-3,9.5-8.5,11.1c-0.9,0.3-2.1,1-2.8,0.7c-1.9-0.8-3.7-2.1-5.5-3.2c1.4-1.5,2.9-3,4.3-4.5c0.4,0.5,0.9,0.9,1.3,1.4
	c-1.1,0.9-2.2,1.8-3.4,2.8c4,2.6,7.9,2,9.6-2.4c2-5.3,3.1-10.9,4.1-16.5C16.4,22.9,16,19.8,16,15.1z"/>
<path class="st0" d="M68.5,65c-1.1-0.9-2.4-1.4-2.3-1.9c0.8-14.2,0.6-28.4,2.9-42.5c0.6,0,1.2,0,1.8-0.1c0.2,1.1,0.4,2.3,0.5,3
	c8.8,0.6,15,3.8,12.5,13.9c-1.3,5.5-7,7.7-12.6,5.8c1.4-0.5,2.1-0.9,2.8-1c6.3-0.6,9.7-6.1,7.1-11.4c-1.4-2.9-3.7-5.6-6.8-4.1
	c-2,0.9-3.9,4.1-4.1,6.4c-0.8,9.3-0.8,18.6-1.2,27.9C68.9,62.1,68.7,63.2,68.5,65z"/>
<path class="st0" d="M46.4,38.7c4.7,6.3,11,3.4,17.5,1.4c-3,4-8.9,5.4-14,4.1c-4.3-1.1-6.3-4.4-6.8-8.2c-0.6-4.7,2.6-7.6,6.6-9.5
	c2.3-1.2,4.8-2.2,7.1-3.4c3.4-1.7,5.9-0.2,7.6,2.5c2,3.1-0.6,5.3-2.8,6.4C56.9,34.5,51.8,36.4,46.4,38.7z M45.9,34.4
	c6.8,0,11.9-3.3,17.3-6.3C59.1,23.6,49.9,27,45.9,34.4z"/>
<path class="st0" d="M190.8,44.7c-4,0.1-8.2,1-12,0.1c-4.1-0.9-4-5.1-3.9-8.6c0.2-7.4,6.4-14.5,12.5-13.6c1.8,0.3,4.2,2.2,4.8,3.9
	c0.6,1.7,0.1,4.9-1.1,6c-3.7,3.4-8,6.4-13.6,4.2c0.1,6,2.3,7.7,7.9,6.4c1.8-0.4,3.6-0.4,5.4-0.6C190.8,43.3,190.8,44,190.8,44.7z
	 M178.1,35.5c3.6-1.3,7-2.3,10-3.9c1.2-0.6,1.6-2.6,2.4-4c-1.5-0.8-3-2.3-4.4-2.3C181.8,25.5,179.2,28.9,178.1,35.5z"/>
<path class="st0" d="M110.2,38.6c0.9,5.3,0.9,5.3,13.2,2.3c-1.4,2.8-7.3,5.4-10.9,4.6c-3.6-0.8-5-3.7-4.9-7c0.1-3.1,0.3-6.3,1.4-9.1
	c0.8-2,2.8-4,4.8-5.1c3.9-2.1,7.5,0.1,9.1,3.4c0.7,1.4-1.3,5.1-3.1,6.5C117.2,36.1,113.6,37.1,110.2,38.6z M122.9,29.6
	c-7.7-5.4-11.9-3.9-12.7,6C114.6,33.6,118.3,31.8,122.9,29.6z"/>
<path class="st0" d="M88.5,44c-2.6-1.4-2.1-12.4,1.8-20c0.4,1.9,0.6,3.3,0.7,3.6c3-0.7,6.4-2.8,9.1-2c4.7,1.4,6.6,7,5.8,13.3
	c-0.3,2.1-0.5,4.2-0.9,7.8c-1-2.2-1.9-3.4-2-4.7c-0.2-3,0.4-6.1-0.2-8.9c-0.4-2-2-4.5-3.7-5.1c-1.4-0.5-4.6,1-5.4,2.5
	C91.6,34.7,90.2,39.4,88.5,44z"/>
<path class="st0" d="M24.5,17.6c3.1,1.4,3.4,12.1,0,24.6C24.5,34,24.5,25.8,24.5,17.6z"/>
<path class="st0" d="M32.3,44.3c-2.5-5.6-0.9-11.6-1.1-17.4c0.6-0.1,1.2-0.1,1.8-0.2c0.5,5.8,0.9,11.6,1.4,17.3
	C33.6,44.2,32.9,44.2,32.3,44.3z"/>
</svg>
