<?xml version="1.0" encoding="utf-8"?>
<!-- Generator: Adobe Illustrator 23.0.1, SVG Export Plug-In . SVG Version: 6.00 Build 0)  -->

<svg version="1.1" id="Слой_1" xmlns="http://www.w3.org/2000/svg" xmlns:xlink="http://www.w3.org/1999/xlink" x="0px" y="0px"
	 viewBox="0 0 425 132" style="enable-background:new 0 0 425 132;" xml:space="preserve">
						<g>
							<path fill="#c32035" d="M144.326,52.017c-1.649,1.144-2.626,2.201-3.816,2.572c-2.845,0.885-6.809,2.94-8.47,1.807
							c-2.882-1.965-6.065-5.962-6.104-9.143c-0.102-8.404,1.414-16.828,2.285-25.244c0.867-0.026,1.735-0.052,2.602-0.078
							c0.101,1.614,0.458,3.26,0.257,4.836c-0.727,5.694-1.989,11.34-2.383,17.05c-0.356,5.149,2.8,9.153,6.322,9.218
							c3.374,0.062,8.978-5.754,9.649-9.349c1.106-5.928,2.587-11.788,4.042-17.644c0.192-0.772,1.161-1.35,2.599-2.925
							c0,2.975,0.021,4.831-0.01,6.686c-0.012,0.738-0.486,1.873-0.164,2.153c5.372,4.669-0.237,8.227-1.218,12.196
							c-0.532,2.151-2.356,4.255-2.187,6.262c0.995,11.805,2.594,23.558,3.615,35.362c0.818,9.457,0.725,18.935-6.46,26.438
							c-5.756,6.011-10.207,6.295-17.006,1.639c-1.901-1.302-3.819-2.586-5.795-3.767c-3.256-1.946-3.337-4.683-1.544-7.438
							c5.608-8.617,13.986-14.19,21.863-20.296c0.466,0.454,0.933,0.909,1.399,1.363c-7.179,7.104-14.359,14.209-21.748,21.52
							c3.07,2.212,5.481,3.878,7.815,5.645c4.214,3.19,7.877,3.041,11.866-0.428c7.439-6.469,7.235-15.101,6.535-23.717
							c-0.61-7.512-1.778-14.979-2.658-22.47C145.156,60.374,144.791,56.475,144.326,52.017z"></path>
							<path fill="#c32035" d="M2.955,118.957c0.406-8.722,0.798-17.368,1.223-26.012c0.048-0.979,0.381-1.947,0.407-2.925
							c0.357-13.765,0.519-27.537,1.089-41.292c0.285-6.88,1.01-13.775,2.077-20.578c0.873-5.569,12.974-9.531,19.359-7.336
							c10.902,3.747,13.821,15.161,8.507,23.946c-3.35,5.538-7.476,10.717-11.887,15.47c-4.11,4.43-9.521,6.256-14.999,4.179
							c-1.335,18.124-2.67,36.281-4.069,54.433C4.656,118.909,3.74,118.907,2.955,118.957z M11.782,59.376
							c0.063,0.586,0.125,1.171,0.188,1.757c1.879-0.355,3.995-0.272,5.597-1.14c8.438-4.567,14.224-11.532,16.906-20.736
							c1.724-5.917-0.719-10.902-5.927-13.722c-6.681-3.619-16.368-0.778-17.512,5.667c-1.458,8.214-1.967,16.597-2.829,24.397
							c3.491,0,6.285-0.019,9.069,0.133c0.058,0.003,0.007,1.992,0.007,3.017C15.245,58.981,13.513,59.178,11.782,59.376z"></path>
							<path fill="#c32035" d="M92.219,86.941c-0.939,1.791-1.206,3.189-2.039,3.755c-9.491,6.451-8.049,27.729-1.607,35.85
							c1.921,2.422,4.416,2.177,5.856-0.084c8.84-13.88,17.012-28.21,17.001-45.262c-0.005-7.441-1.403-15.127-6.491-21.172
							c-1.831-2.176-4.725-3.456-7.998-5.751c0.294-0.322,1.113-1.627,2.278-2.423c6.002-4.102,10.854-9.079,12.591-16.379
							c0.575-2.416,0.599-4.963,0.868-7.395c-9.155-1.392-11.323,8.553-18.898,10.489c0.462-1.965,0.364-3.261,0.941-3.732
							c4.517-3.692,8.867-7.737,13.868-10.639c3.736-2.168,6.671,0.429,7.03,4.89c0.698,8.683-3.518,15.112-9.297,20.856
							c-0.928,0.923-2.067,1.633-2.962,2.328c15.098,18.381,11.592,37.4,3.775,56.486c-2.645,6.459-6.09,12.65-9.722,18.627
							c-3.823,6.291-9.226,6.276-12.321-0.394c-4.795-10.331-6.414-21.282-2.326-32.405C84.193,90.705,86.946,88.136,92.219,86.941z"></path>
							<path fill="#c32035" d="M339.092,44.338c2.331-2.586,3.994-5.107,6.271-6.807c3.847-2.872,6.861-1.108,7.246,3.747
							c0.492,6.194,1.124,12.377,1.699,18.6c2.416-0.364,4.113-0.62,5.809-0.876c0.208,0.368,0.415,0.736,0.623,1.104
							c-2.589,1.913-5.178,3.827-8.59,6.348c-2.629-8.647-2.477-17.2-2.615-25.733c-5.257,1.065-9.643,7.303-10.003,12.809
							c-0.191,2.912-0.753,5.867-1.654,8.637c-0.427,1.312-2.044,2.236-3.95,2.994c1.221-11.66,5.321-23.113-2.517-35.332
							c-2.213,3.486-4.975,6.132-5.643,9.23c-1.586,7.347-2.075,14.924-3.228,22.374c-0.445,2.874-1.488,5.656-2.258,8.48
							c-0.846-0.03-1.691-0.059-2.537-0.089c-0.684-3.995-2.629-8.275-1.802-11.928c2.028-8.962,3.82-18.264,9.747-25.771
							c1.616-2.047,4.567-5.056,6.125-4.648c2.223,0.582,4.405,3.646,5.368,6.129C338.438,36.848,338.482,40.557,339.092,44.338z"></path>
							<path fill="#c32035" d="M55.087,41.144c7.339,5.208,17.966-1.268,19.326-8.188c0.411-2.093-0.152-5.402-1.58-6.631
							c-3.613-3.111-8.068-3.856-12.56-1.164c-7.743,4.64-12.888,19.619-9.6,28.045c2.395,6.138,10.261,10.391,16.585,8.489
							c6.32-1.901,12.478-4.343,19.542-6.844c-0.522,1.66-0.57,3.244-1.165,3.486c-6.61,2.692-13.121,6.376-20.021,7.434
							c-10.32,1.583-17.736-5.297-18.984-16.176C45.304,38.03,50.378,28.997,59.23,22.112c4.777-3.715,12.297-2.536,16.714,1.8
							c3.419,3.357,3.58,9.107-0.3,14.412c-1.955,2.673-4.68,5.07-7.564,6.687c-2.427,1.361-5.561,1.609-8.429,1.997
							C55.46,47.575,53.677,45.777,55.087,41.144z"></path>
							<path fill="#c32035" d="M250.112,40.032c1.011-1.168,1.853-1.95,2.465-2.882c2.15-3.274,5.07-4.723,9.024-4.432
							c5.074,0.373,5.366,4.692,5.793,7.869c0.899,6.695,0.938,13.513,1.125,20.287c0.036,1.311-0.839,2.659-1.404,3.942
							c-0.028,0.063-1.544-0.226-1.629-0.547c-0.311-1.173-0.343-2.427-0.42-3.655c-0.42-6.658-0.451-13.368-1.369-19.956
							c-0.561-4.027-5.13-5.503-7.504-2.395c-2.856,3.739-4.72,8.331-6.512,12.756c-1.272,3.14-1.534,6.678-2.641,9.903
							c-0.311,0.907-2.015,1.335-3.08,1.983c-0.449-1.141-1.441-2.389-1.243-3.404c0.56-2.863,2.147-5.592,2.352-8.445
							c0.403-5.593,0.67-11.299-0.026-16.83c-0.454-3.605-4.927-4.283-8.397-1.581c-5.598,4.358-7.183,10.66-8.088,17.298
							c-0.51,3.74-1.364,7.432-2.178,11.758c-3.151-3.384,0.615-28.759,4.437-33.825c0.465,1.746,0.84,3.156,0.849,3.188
							c3.566-1.298,7.372-4.04,10.821-3.647C248.964,28.157,247.862,35.065,250.112,40.032z"></path>
							<path fill="#c32035" d="M310.852,60.7c-4.892,4.378-9.498,2.47-12.027-5.771c-1.863,2.448-3.203,4.343-4.682,6.122
							c-2.946,3.542-7.348,4.184-10.799,2.533c-2.563-1.226-5.079-4.962-5.463-7.865c-0.994-7.51-0.462-14.999,4.632-21.508
							c3.592-4.59,9.168-7.673,14.057-5.966c4.718,1.647,8.256,4.937,8.02,10.568c-0.158,3.772-0.45,7.563-1.057,11.285
							C302.152,58.563,302.239,58.827,310.852,60.7z M279.5,51.186c1.643,2.749,2.724,6.203,5.068,8.073
							c3.068,2.448,5.954-0.198,8.744-2.165c4.842-3.414,5.85-8.663,7.818-13.661c1.704-4.329,0.741-7.534-2.382-10.169
							c-2.809-2.37-9.658-1.568-11.891,1.173C283.061,39.096,280.444,44.295,279.5,51.186z"></path>
							<path fill="#c32035" d="M190.373,62.282c-4.856-1.744-7.171-4.352-6.808-9.128c0.488-6.409,0.626-12.845,1.07-19.258
							c0.221-3.198-1.243-4.063-4.143-3.876c-2.624,0.169-4.789,0.145-4.989,3.859c-0.316,5.871-0.926,11.769-2.033,17.536
							c-0.487,2.539-2.148,5.092-3.896,7.099c-3.146,3.611-8.204,2.449-9.713-2.005c-0.212-0.624,0.005-1.813,0.451-2.122
							c0.439-0.304,1.565-0.033,2.145,0.353c4.347,2.893,6.623,2.51,7.905-2.5c1.329-5.192,1.469-10.682,2.266-16.021
							c0.551-3.689,1.03-7.436,2.1-10.988c1.002-3.324,3.834-3.536,5.852-0.741c0.177,0.245,0.137,0.887,0.252,0.901
							c12.571,1.548,5.99,11.201,6.292,16.924c0.325,6.158-1.943,12.363,3.339,17.518C190.763,60.124,190.439,61.054,190.373,62.282z"></path>
							<path fill="#c32035" d="M199.607,50.333c3.169-1.433,4.734-2.491,6.444-2.843c3.734-0.767,7.876-1.484,10.348,2.297
							c1.835,2.808,3.166,6.051-0.203,9.268c-3.859,3.684-9.006,5.542-12.313,2.846c-2.594-2.116-5.206-5.33-5.876-8.469
							c-1.794-8.409,0.643-16.579,3.443-24.521c0.275-0.78,1.334-1.283,3.114-1.551C203.005,34.585,201.446,41.811,199.607,50.333z
							 M208.123,60.792c2.674-2.842,6.093-4.809,6.202-6.944c0.217-4.259-3.957-2.441-6.449-2.782c-0.474-0.065-1.075-0.057-1.451,0.18
							c-1.625,1.022-3.189,2.142-4.775,3.227C203.506,56.284,205.361,58.096,208.123,60.792z"></path>
							<path fill="#c32035" d="M421.821,59.838c0.155-19.255-6.897-38.058-3.103-57.517c1.797,19.126,3.593,38.252,5.39,57.377
							C423.346,59.744,422.584,59.791,421.821,59.838z"></path>
							<path fill="#c32035" d="M379.253,4.24c1.62,17.07,3.24,34.139,4.859,51.209c-0.72,0.069-1.441,0.139-2.161,0.208
							c-1.724-17.064-3.449-34.127-5.173-51.191C377.603,4.391,378.428,4.316,379.253,4.24z"></path>
							<path fill="#c32035" d="M399.432,4.5c0.96,16.727,4.255,33.314,5.09,50.048c-0.858,0.052-1.716,0.103-2.573,0.155
							C401.524,37.944,397.324,21.412,399.432,4.5z"></path>
							<path fill="#c32035" d="M384.867,72.177c-4.779-3.79-4.779-3.79-2.471-9.951C387.437,65.637,387.924,67.407,384.867,72.177z"></path>
							<path fill="#c32035" d="M403.129,70.81c-0.543-3.491-1.006-6.231-1.25-8.991c-0.009-0.103,2.127-0.395,3.263-0.598
							C405.456,64.136,408.221,67.255,403.129,70.81z"></path>
							<path fill="#c32035" d="M418.321,65.459c1.779-1.454,2.899-3.057,4.15-3.167c0.948-0.083,3.109,2.248,2.926,2.623
							c-0.858,1.756-2.342,3.207-3.602,4.767C420.868,68.556,419.941,67.429,418.321,65.459z"></path>
						</g>
					</svg>
