<?xml version="1.0" encoding="utf-8"?>
<!-- Generator: Adobe Illustrator 23.0.1, SVG Export Plug-In . SVG Version: 6.00 Build 0)  -->
<svg version="1.1" id="Слой_1" xmlns="http://www.w3.org/2000/svg" xmlns:xlink="http://www.w3.org/1999/xlink" x="0px" y="0px"
	 viewBox="0 0 179.8 64.1" style="enable-background:new 0 0 179.8 64.1;" xml:space="preserve">
<style type="text/css">
	.st0{fill:#3D0BB8;}
</style>
<path class="st0" d="M21.4,25.2c-8.6,4.4-12.3,0.6-13.5-9.5c-0.3-2.2,0-4.5-0.9-6.9c-1.7,4-3.4,7.9-5.2,12.2
	c-0.5-0.5-1.9-1.4-1.8-1.6C2.8,13,5.7,6.8,8.6,0.5c0.7,0.2,1.4,0.3,2.1,0.5c0,4.3-0.1,8.7,0,13c0.1,2.4,0.2,5,1.1,7.2
	c0.6,1.5,2.9,3.6,3.9,3.3c2.2-0.5,5.5-0.8,5-4.8c-0.4-3.7-0.3-7.4,3.4-9.8c0.9-0.6,2.3-1.2,3-0.8c0.8,0.3,1.6,1.9,1.4,2.8
	c-0.5,2.9-0.6,6.5-2.3,8.3c-3,3.1-1.8,5.8-1.1,8.9c1.3,5.5,3.9,10.9,1.5,16.8c-2.7,6.6-13.1,11.1-19,7.8c-1.7-0.9-3.3-3-3.7-4.7
	c-0.2-1.2,2-2.8,4-3.5c-0.2,1.8-0.4,3.5-0.6,5.3c3.2,0.2,6.6,1.2,9.7,0.5c6.5-1.5,9.4-8.4,7.3-16.2C23.6,31.9,22.5,28.7,21.4,25.2z"
	/>
<path class="st0" d="M34.5,32.4c0,3.9,0,7.8,0,12.3c4.1-4.4,7.6-8.1,11.1-11.7c0.8,0.3,1.5,0.6,2.3,0.9c0,2.4,0,4.9,0,7.3
	c0,2.2-0.5,5.5,2.7,5c2.8-0.4,7.4-0.5,7.2-5c-0.2-4.9,1.4-7.7,6.2-8.3c4-0.4,10.2,4.1,10.8,8c0.8,4.9-3.1,6.9-6.4,9
	c-3.2,2-5.7,0.7-7.5-2.1c-1.4-2.1-2.3-2.3-4.7-1.1c-2.4,1.2-5.8,2-8.1,1.2c-1.4-0.5-1.6-4.5-2.1-6.9c-0.3-1.2-0.2-2.6-0.2-4.4
	c-5.8,2.8-7,8.4-9.7,12.9c-0.5,0.8-1.2,1.5-1.8,2.2c-0.4-0.9-1.1-1.9-1.2-2.8c-0.4-5.5-0.7-10.9-1-16.4
	C32.7,32.5,33.6,32.5,34.5,32.4z M64.5,36.1c-0.7,2-1.5,3.3-1.6,4.7c-0.1,2,0.3,4,0.5,6c2.6-0.6,5.5-0.6,7.5-2
	c0.7-0.5,0-4.4-1.1-6.2C68.9,37.3,66.5,37,64.5,36.1z"/>
<path class="st0" d="M149.9,32.8c5.2-0.9,8.2,2.5,9.2,7.1c0.4,2.1-1.2,5.7-3,6.8c-2.3,1.5-6,2.3-8.6,1.5c-1.7-0.5-3.5-4.3-3.4-6.5
	c0.7-11,4.3-21.1,11.9-29.3c1.2-1.3,3.9-1.7,5.9-1.5c3.3,0.3,5,2.3,2.5,5.3C159.6,21.9,154.8,27.2,149.9,32.8z M145.2,40.6
	c2.4,2.8,3.6,5.1,5.4,6c2.1,1,6.9-3.5,6-5.4c-1-2.1-3.2-4.5-5.3-5.1C149.9,35.9,147.8,38.7,145.2,40.6z M151,27.6
	c4.2-4.6,7.7-8.6,11.6-12.9C156.7,13.7,153,17.9,151,27.6z"/>
<path class="st0" d="M80.9,22.3c-0.4,4.8-0.7,9.6-1.2,15.4c4-3.6,7.3-6.9,12-4.2c2.8,1.6,4.8,9.1,3.8,12.2c-1.3,3.7-4.7,6-9.8,5.7
	c1.5-1.4,2.3-2.3,3.2-3c1.2-0.9,3.6-1.6,3.7-2.6c0.6-3.7,0.9-7.9-2.9-10.2c-1.1-0.7-3.8,0.3-5.1,1.3c-5.7,4.4-3.9,10.6-3.3,16.4
	c0.4,3.5,1.5,6.9,2.3,10.3C77.8,62.5,75,29.4,80.9,22.3z"/>
<path class="st0" d="M134.8,34.1c-2.9,4.4-5.3,8.1-7.8,11.8c-0.4,0-0.8,0-1.2,0.1c0-1.9,0.1-3.9,0-5.8c-0.2-1.9-0.6-3.9-2.1-5.9
	c-1.3,2.8-3,5.4-3.7,8.3c-0.7,2.6-0.3,5.5-1.3,8.3c-5-4.9-0.1-10.4-2.6-16.7c2.1,1.4,2.9,2,3.8,2.6c1.4-1.9,2.9-3.8,5.2-7
	c1.5,3.7,2.5,6.4,3.6,9.1c0.7-0.9,1.7-2.3,3-3.5c1.1-1,2.6-2.5,3.7-2.3c1.2,0.2,2.7,1.9,3.1,3.2c1.1,4.1,1.8,8.4,2.8,13.4
	C135.6,45.8,137.3,39.7,134.8,34.1z"/>
<path class="st0" d="M179.8,39.6c-0.2,4.4-5.4,8.3-11.1,8.3c-3.8,0-7.1-4-6.9-8.1c0.2-3.9,5.6-9.7,9.1-9.8
	C174.9,30,179.9,35.5,179.8,39.6z M171.1,33.9c-3.7,0-6.7,2.7-6,6.5c0.3,1.7,2.8,4.3,4.1,4.2c3.1-0.4,7.4-0.3,7.7-5.1
	C176.9,35.8,175,33.7,171.1,33.9z"/>
<path class="st0" d="M109.7,49.1c-2.8-0.4-6.1-0.1-8.4-1.5c-4.1-2.5-3.1-7.3,2.3-11.7c1.1-0.9,2.6-1.1,4-1.7
	c0.5,1.4,0.9,2.8,1.4,4.1c-0.3,0.2-0.6,0.3-0.9,0.5c-0.8-0.6-1.5-1.3-3.1-2.6c-1.1,3.1-3.3,6.2-2.6,8.6c0.4,1.6,4.8,2,7.5,3
	C109.7,48.3,109.7,48.7,109.7,49.1z"/>
</svg>
