<?xml version="1.0" encoding="utf-8"?>
<!-- Generator: Adobe Illustrator 23.0.1, SVG Export Plug-In . SVG Version: 6.00 Build 0)  -->
<svg version="1.1" id="Слой_1" xmlns="http://www.w3.org/2000/svg" xmlns:xlink="http://www.w3.org/1999/xlink" x="0px" y="0px"
	 viewBox="0 0 178.9 83.2" style="enable-background:new 0 0 178.9 83.2;" xml:space="preserve">
<style type="text/css">
	.st0{fill:#3D0BB8;}
</style>
<path class="st0" d="M25.6,36.5c-4.3,8.5-7.7,17-12.8,24.4C8.4,67.4,4,66,1.7,58.6c-3.1-9.8-2.6-19.9-1.2-29.9
	c1-7.2,2.9-14.4,5.6-21.1c1.3-3.3,5.3-6.8,8.6-7.6c4.9-1.1,8,3.4,9.4,7.8c1.7,5.2,2.4,10.8,3.7,16.6c2.1-1.6,4.6-3.7,7.4-5.5
	c5.9-3.8,11.8-7.5,17.9-11c1.5-0.9,3.5-0.8,5.3-0.5C52,11.2,45.3,14.8,39.1,19c-4.1,2.7-7.8,6.1-11.4,9.5c-3.3,3.1-2.1,6.2,1.9,7.9
	c3.7,1.6,7.5,3.7,10.3,6.5c4.8,4.8,0.1,17.9-6.6,18.6c-1.4,0.1-4.1-2.4-4.3-3.9c-0.6-4.2-1-8.8,0.2-12.7
	C30.6,39.8,28.9,37.7,25.6,36.5z M2.1,38C2.8,45.5,3.1,50.8,3.9,56c0.3,2,1.9,3.9,2.9,5.8c1.9-1.3,4.6-2.2,5.6-4
	c7.7-13.1,12.1-27.1,11.4-42.5c-0.3-5.9-4.4-12.1-8-12.4C12.4,2.6,8.1,7.1,6.2,13c0,0.2-0.2,0.3-0.2,0.4C4.6,22.3,3.2,31.2,2.1,38z
	 M30.8,58.6c0.7,0.1,1.4,0.2,2.1,0.3c3.7-3,7.8-6.4,6.5-11.7c-0.6-2.7-4-4.7-6.1-7c-0.5,0.3-1,0.7-1.5,1
	C31.5,47,31.2,52.8,30.8,58.6z"/>
<path class="st0" d="M149.6,39.5c4.4,2.8,7.1,10.7,6.3,18.4c-1.6-2.6-2.8-4.4-3.7-5.9c-3.1,1.8-6.5,4.6-10.3,5.6
	c-5.2,1.3-6.5-3.7-8.1-7.3c-0.5,0.1-0.8,0.1-0.9,0.3c-2.3,2.1-4.7,4.1-7,6.2c-2.1-3-4.1-5.9-6.3-9.1c-2.9,1.9-6.5,4.4-10.4,7
	c-0.3-1.3-0.6-2.8-0.8-4.2c-2.5,2.2-4.7,5.3-7.7,6.4c-2.7,1-6.1-0.2-9.2-1.1c-4.1,1.9-8.3,6.6-13.4,2.5c-4.6-3.7-2.5-9.3-1.4-14.3
	c0.3-1.6,1-3.1,1.6-4.7c-6.4-2.9-5.5,4.5-9.1,6.8c0.3-5,0.5-9.5,0.7-14c0.5-0.3,1-0.7,1.4-1c2.2,7.5,7.2,6,11.2,4.4
	c-1.7,5.5-3.6,10.7-4.7,16c-0.8,4,1.8,5.7,5.7,5.4c3.9-0.3,6.8-3.4,6.5-6.6c-0.5-5.8-0.8-11.3,4.4-15.8c3.3-2.9,5.6-0.3,7.1,1.2
	c1.3,1.2,2,4.9,1.1,6.3c-2.4,3.9-5.7,7.2-8.8,11c1.8,3.4,4.1,3.9,7.4,1.4c4.4-3.4,8.6-6.5,7.7-13.2c-0.3-2.2,0.5-5.3,4.7-5
	c-0.9,3.8-1.7,7.4-2.6,11.2c6,0.8,8.7-1.1,9.8-5.9c0-0.2,0-0.4,0.1-0.5c1.7-1.4-0.8-5.7,3.4-4.9c0.4,0.1,0.3,3.7,0,5.6
	c-0.6,4.5-1.6,9,1.9,13.2c3.8-3.7,8.1-6.7,6.8-12.9c-0.3-1.5,1-3.3,1.6-5c3.3,1.6,3.1,3.3,2.5,6.2c-0.7,3.2,0.3,6.9,1.1,10.2
	c0.2,0.9,2.9,1.8,4.3,1.6c6.7-1,9.8-6.2,7.8-12.7C150.1,41.6,150,41,149.6,39.5z M92.4,49c0.4,0.1,0.7,0.1,1.1,0.2
	c2-2.1,4.1-4.2,5.8-6.5c0.8-1.1,1.7-3.1,1.2-4.1c-0.6-1.2-2.6-2.5-3.8-2.4c-1.1,0.1-2.5,2-2.9,3.3C93.1,42.6,92.9,45.9,92.4,49z"/>
<path class="st0" d="M59.2,55.9c-3,1.4-5.8,3.8-7.3,3.1c-2.3-1-4.8-3.7-5.4-6.2c-1-3.7-0.6-7.9-0.6-11.8c0-0.8,1.2-1.5,1.8-2.3
	c0.3,4.6,0.5,8.8,0.9,12.9c0.2,2.8,1.3,6.3,4.4,4.8c2.3-1.1,3.7-5,4.6-7.9c0.7-2.5-0.1-5.4,0.3-8c0.1-0.9,1.6-1.7,2.4-2.5
	c0.8,0.9,1.8,1.7,2.5,2.7c0.2,0.3,0.2,1.1,0,1.5c-4.1,8.5-0.4,16.9,0,25.4c0.1,2.8,0,5.7,0,8.5c0,6.8-1.2,7.8-7.8,6.8
	c-7.3-1.2-11.3-9.5-7.1-15.6c2.1-3,4.9-5.6,8-7.8c-1.8,5.7-9.6,8.3-6.6,16c1.9,5,6.4,4.2,9.9,5.7C59.2,72.3,59.2,63.9,59.2,55.9z"/>
<path class="st0" d="M163,51.3c3.8,6.3,9.9,4.9,16,3.7c-2,3.5-5.4,4.4-11.1,2.9c-5.8-1.5-8.6-5.3-8.1-11.1c0.4-4.6,6.8-12,10.7-11.5
	c2.4,0.3,5.3,2.1,6.7,4.1c0.7,1-1.1,4.8-2.8,6C171.1,47.8,167.1,49.2,163,51.3z M176.3,41.1c-3.3-3.4-6.4-4-9.1-1.7
	c-2,1.7-3.2,4.5-4.8,6.8c0.6,0.6,1.2,1.2,1.7,1.8C168.1,45.6,172,43.4,176.3,41.1z"/>
</svg>
