<?xml version="1.0" encoding="utf-8"?>
<!-- Generator: Adobe Illustrator 23.0.1, SVG Export Plug-In . SVG Version: 6.00 Build 0)  -->
<svg version="1.1" id="Слой_1" xmlns="http://www.w3.org/2000/svg" xmlns:xlink="http://www.w3.org/1999/xlink" x="0px" y="0px"
	 viewBox="0 0 167.5 61.5" style="enable-background:new 0 0 167.5 61.5;" xml:space="preserve">
<style type="text/css">
	.st0{fill:#3D0BB8;}
</style>
<path class="st0" d="M101.9,37.8c6.9-1.2,11.3,1.1,12.3,5.9c0.8,4-3.9,12.7-7.6,13.4c-1,0.2-2.8-0.6-3.3-1.5
	c-1.3-2.2-2.6-4.7-2.9-7.2c-1.5-13.8,0.1-27.3,4-40.6c1.2-4.1,3.5-7.6,8.4-7.9c2.7-0.1,4.7,0.8,4.6,4.3c-0.3,8.3-3.7,15.5-7.9,22.3
	C107.2,30.3,104.7,33.7,101.9,37.8z M102.4,30.1c0.5,0.1,1.1,0.3,1.6,0.4c4.9-6.9,8.7-14.4,10.4-22.7c0.3-1.7-0.6-3.6-0.9-5.4
	c-1.7,1-4.6,1.6-5,3C106.1,13.6,104.4,21.9,102.4,30.1z M103.5,49.8c2.9-2.1,8.9,1.8,7.9-5.4c-0.4-3-2.4-4.8-5.2-3.9
	C101.7,42,103.7,46,103.5,49.8z"/>
<path class="st0" d="M47.1,56.7c1.7-5.8,3.4-11.7,5-17.6c0.8,0,1.6,0,2.4,0c1.4,6.5,2.8,13,4.2,19.9c-2.6-1.8-2.6-1.8-5.1-14.5
	c-1.9,5-3.8,10.1-5.9,15.8c-3.9-2.3-6.5-3.8-10-5.8c-0.9,1.1-2,3.1-3.7,4.4c-3.2,2.5-7.3,1.9-8.2-1.8c-1-4.4-0.6-9.3-0.6-13.9
	c0-0.6,1.1-1.2,1.7-1.8c0.3,0.9,0.9,1.8,0.9,2.7c0.1,4.5,0,8.9,0,13.4c0.6,0.3,1.2,0.6,1.8,0.9c2.8-1.9,5.6-3.8,7.6-5.1
	c0-3.5-0.2-6,0.1-8.4c0.1-0.9,1.5-1.6,2.4-2.5c0.3,1.1,1,2.2,0.8,3.2C39.2,50.8,41.8,55.8,47.1,56.7z"/>
<path class="st0" d="M23.8,57.2c-5.7,5.5-11.7,5.7-17,1.1C2,54.1-0.7,48.6,0.2,42.1c1.2-9.5,4.3-18.2,11.7-24.7
	c3.8-3.3,6.3-2.7,10.9,2c4.1,4.2,4.4,5.6,1.1,9.5c-1-2.5-1.8-4.7-2.7-6.9c-1.4-3.8-5.3-5.2-8.3-2.6C6.2,25.1-0.8,42.4,5.1,52.1
	C8.4,57.8,12.2,61.9,23.8,57.2z"/>
<path class="st0" d="M75.9,58.3c-2.8-0.7-6.3-0.7-10.1,0.8c-3.4,1.3-5-2.6-5.3-5.5c-0.3-2.7,0.1-5.7,1-8.2c0.7-1.9,2.9-4.8,4-4.6
	c2.3,0.3,4.9,2,6.3,3.9c1.4,1.9,1.5,4.8,2.2,7.3C74.5,53.9,75.1,55.9,75.9,58.3z M64.8,43c-0.6,2.8-1.4,5-1.4,7.2c0,2,0.9,4,1.4,6
	c1.8-0.5,3.6-1,4.7-1.4c-0.3-3.6-0.4-6.5-0.7-10.2C68.1,44.3,66.6,43.7,64.8,43z"/>
<path class="st0" d="M130.5,56c4.1-2.3,5.7-5.2,3.9-9.8c-0.8-2-0.4-4.7,0-6.9c0.2-1.1,1.7-2,2.6-2.9c0.9,0.9,2.3,1.7,2.6,2.7
	c0.8,3,1.5,6,1.5,9.1c-0.1,4.2,1.1,6.7,6.2,6.3c-4.6,3.2-6.3,2.5-8.7-2.4c-2.1,1.8-4.3,3.8-6.5,5.8C131.6,57.2,131.1,56.6,130.5,56z
	"/>
<path class="st0" d="M153.8,39.8c-0.2,2.1-0.5,4.1-0.4,6.2c0.1,2.4-1.5,6.1,2.7,6.2c3.6,0.1,5.3-2.5,5.3-6.3
	c0.1-4.9,1.1-5.4,6.1-3.1c-7.9,3.8,1.7,10.8-3.3,16.4c-0.8-3.1-1.3-5.2-1.9-7.7c-3.4,2.5-6.7,5.6-10.7,1.5
	C149.3,50.8,149.9,43.7,153.8,39.8z"/>
<path class="st0" d="M130.3,46.7c0,2.8-4.7,7.6-7.4,7.6c-4,0-7.5-4-7.6-8.6c-0.1-4.5,3-8.4,6.5-8.4
	C125.8,37.4,130.3,42.3,130.3,46.7z M129.5,46.2c-3.4-2.9-5.6-4.8-7.7-6.6c-1.2,1.5-3.6,3.5-3.3,4.5c0.9,2.6,3,4.8,4.6,7.1
	C124.8,50,126.5,48.7,129.5,46.2z"/>
</svg>
