<?xml version="1.0" encoding="utf-8"?>
<svg version="1.1" id="Слой_1" xmlns="http://www.w3.org/2000/svg" xmlns:xlink="http://www.w3.org/1999/xlink" x="0px" y="0px"
	 viewBox="0 0 201.44 201.44" style="enable-background:new 0 0 201.44 201.44;" xml:space="preserve">
<path fill="#5f5f5f" d="M201.84,41.31c-28,5.9-56,11.78-83.99,17.7c-7.36,1.56-14.65,3.54-22.06,4.81c-10.03,1.73-20.12,1.93-29.95-1.32
	c-11.87-3.93-23.68-8.03-35.53-12.01c-7.54-2.54-14.64,1.23-16.33,8.6c-1.29,5.61,1.59,11.54,7.11,13.59
	c6.25,2.32,12.67,4.21,19.02,6.25c12.4,3.98,24.85,7.83,37.21,11.94c6.72,2.23,13.22,1.41,19.91-0.14
	c30.16-7.01,60.36-13.86,90.55-20.75c4.36-0.99,7.3,0.85,8.38,5.16c0.44,1.77,0.8,3.55,1.24,5.55c-3.92,0.91-7.72,1.82-11.53,2.69
	c-31.21,7.14-62.42,14.27-93.62,21.42c-5.05,1.16-10,0.89-14.92-0.69C61.54,99.04,45.77,94,29.99,88.98
	c-7.09-2.26-13.38,0.38-16.01,6.66c-2.44,5.84,0.2,13,6.13,15.28c6.41,2.46,13.02,4.38,19.56,6.48
	c12.65,4.06,25.32,8.08,37.97,12.14c4.87,1.56,9.78,1.72,14.74,0.58c31.53-7.22,63.05-14.44,94.57-21.66
	c4.59-1.05,7.56,0.76,8.64,5.28c0.41,1.72,0.8,3.44,1.25,5.39c-3.77,0.86-7.45,1.7-11.13,2.55c-31.4,7.19-62.79,14.38-94.19,21.59
	c-4.92,1.13-9.75,0.88-14.54-0.64c-15.72-5-31.43-10.01-47.15-15c-6.83-2.17-13.05,0.35-15.68,6.29
	c-2.73,6.18-0.06,13.44,6.26,15.85c5.98,2.28,12.16,4.06,18.27,6.02c12.15,3.9,24.35,7.65,36.45,11.72
	c6.56,2.2,12.96,2.36,19.69,0.79c30.79-7.18,61.63-14.18,92.46-21.22c4.22-0.96,7.24,0.94,8.25,5.1c0.43,1.78,0.82,3.56,1.29,5.61
	c-2.72,0.64-5.36,1.29-8,1.9c-32.42,7.42-64.84,14.84-97.26,22.25c-4.76,1.09-9.5,0.97-14.17-0.52
	c-19.77-6.3-39.55-12.57-59.28-18.96c-9.78-3.17-15.62-9.93-17.41-20.1c-0.04-0.25-0.2-0.47-0.3-0.71c0-1.97,0-3.93,0-5.9
	c1.3-3.37,2.31-6.89,3.98-10.06c1.25-2.36,3.36-4.26,4.82-6.05c-2.06-2.85-4.43-5.57-6.14-8.66c-1.32-2.39-1.81-5.24-2.67-7.88
	c0-1.97,0-3.93,0-5.9c1.35-3.51,2.43-7.17,4.16-10.48c1.21-2.3,3.33-4.12,5.07-6.19c0.01,0.02,0-0.05-0.04-0.09
	c-0.37-0.37-0.76-0.72-1.12-1.1c-6.76-7-9.15-15.29-6.38-24.59c2.74-9.19,9.09-14.97,18.56-17.01c2.42-0.52,4.97-0.38,7.4-0.85
	c25.91-4.99,51.82-9.97,77.7-15.1c10.31-2.05,20.65-2.9,31.07-1.51c17.4,2.33,34.77,4.86,52.15,7.31c3.48,0.49,6.96,1.01,10.4,1.51
	c0.19,0.91,0.34,1.61,0.5,2.31c0.65,2.91,1.31,5.83,1.97,8.74C201.84,40.52,201.84,40.92,201.84,41.31z"/>
</svg>
