<?xml version="1.0" encoding="utf-8"?>
<svg version="1.1" id="Слой_1" xmlns="http://www.w3.org/2000/svg" xmlns:xlink="http://www.w3.org/1999/xlink" x="0px" y="0px"
	 viewBox="0 0 201.44 201.44" style="enable-background:new 0 0 201.44 201.44;" xml:space="preserve">
<path fill="#5f5f5f" d="M114.1,0.39c2.62,0,5.25,0,7.87,0c2.44,0.4,4.89,0.73,7.31,1.23c15.66,3.23,27.21,11.79,33.83,26.52
	c3.95,8.79,5.47,18.14,5.72,27.71c0.4,15.13,0.6,30.27,1.2,45.39c0.29,7.32,2.19,14.25,7.73,19.63c0.37,0.36,0.69,0.8,0.96,1.24
	c1.86,3.09-0.04,7.03-3.64,7.34c-1.74,0.15-3.55,0.03-5.28-0.22c-12.34-1.8-23.28-6.86-33.13-14.38c-2.33-1.78-4.54-3.69-6.82-5.56
	c-2.5,2.89-4.58,5.74-3.94,9.83c0.31,1.98,0.05,4.06,0.05,6.09c0,1.21,0,2.42,0,3.76c3.74,0,7.15,0.16,10.54-0.03
	c8.19-0.47,14.68,2.96,19.96,8.79c10.58,11.68,16.54,25.46,17.98,41.17c0.34,3.68-0.48,5.16-3.73,6.77
	c-16.42,8.16-33.86,12.77-52,14.98c-3.89,0.47-7.8,0.8-11.7,1.19c-5.38,0-10.75,0-16.13,0c-0.64-0.12-1.27-0.28-1.91-0.35
	c-5.92-0.67-11.87-1.12-17.76-2.03c-15.63-2.41-30.51-7.32-44.88-13.86c-2.4-1.09-3.68-2.86-3.54-5.55
	c0.06-1.11,0.02-2.24,0.17-3.34c1.79-13.13,6.7-25,14.8-35.47c6.21-8.03,13.89-13.26,24.67-12.31c2.98,0.26,6,0.04,9.21,0.04
	c0-4.57,0.01-8.94-0.02-13.31c0-0.34-0.32-0.7-0.52-1.03c-2.11-3.38-4.28-6.73-6.3-10.16c-0.67-1.13-1.43-1.8-2.68-2.31
	c-1.59-0.66-3.11-1.69-4.39-2.86c-3.65-3.33-5.69-7.65-6.89-12.35c-1.18-4.6-1.33-9.17,0.95-13.6c0.55-1.07,0.76-2.43,0.74-3.64
	c-0.08-4.12-0.63-8.25-0.45-12.35c0.43-10.03,3.47-19.16,10.3-26.76C67.76,24.6,74.56,21,82.23,18.84c0.92-0.26,1.97-0.84,2.51-1.59
	c4.75-6.62,11.1-11.08,18.66-13.82C106.88,2.17,110.53,1.39,114.1,0.39z M42.19,152.77c20.57,2.14,39.98,6.35,56.52,19.17
	c7.97-6.41,17-10.57,26.66-13.54c9.64-2.97,19.52-4.59,30.09-5.55c-2.27-2.91-4.12-5.52-6.2-7.93c-3.52-4.08-7.85-6.26-13.48-5.86
	c-4.56,0.32-9.17,0.15-13.76,0.03c-4.56-0.12-6.24-1.95-6.24-6.45c0-2.46,0-4.92,0-7.89c-11.27,8.37-22.46,8.7-33.9,0.79
	c0,2.72-0.12,5.01,0.03,7.29c0.31,4.69-2.09,6.37-6.4,6.31c-5.37-0.08-10.75-0.1-16.12,0.03c-1.79,0.04-3.75,0.28-5.31,1.07
	C48.72,142.89,45.42,147.61,42.19,152.77z M75.2,62.44c-3.49,6.09-8.51,11.15-13.81,15.98c-0.59,0.54-1.07,1.56-1.05,2.35
	c0.07,3.91,1.33,7.45,3.82,10.49c0.37,0.46,1.1,1.02,1.56,0.95c3.55-0.58,5.28,1.4,6.62,4.27c3.34,7.19,7.62,13.76,13.66,19.01
	c5.42,4.71,11.46,7.11,18.63,4.33c4.32-1.68,7.68-4.71,10.72-8.1c4.23-4.72,7.49-10.08,10.14-15.82c1.16-2.52,2.92-3.95,5.84-3.62
	c0.4,0.04,0.97-0.1,1.22-0.38c3.06-3.31,4.47-7.22,4.36-11.82c-0.88-0.05-1.53-0.08-2.17-0.13c-6.4-0.42-12.83-0.61-19.2-1.31
	c-10.08-1.12-19.89-3.49-28.82-8.46C82.74,67.96,79.14,65.12,75.2,62.44z M102.02,191.62c3.91-0.33,11.44-0.73,18.9-1.66
	c14.51-1.81,28.42-5.85,41.79-11.79c1.1-0.49,1.5-1.02,1.16-2.21c-1.05-3.71-2.05-7.43-3.02-11.15c-0.34-1.32-1.06-1.75-2.41-1.56
	c-7,0.97-14.07,1.53-20.99,2.89c-13.01,2.54-25.17,7.11-35.09,16.41c-2.45,2.3-4.91,2.1-7.55-0.07c-2.57-2.12-5.08-4.39-7.9-6.12
	c-14.89-9.13-31.51-12-48.59-13.07c-0.49-0.03-1.36,0.4-1.47,0.78c-1.21,4.07-2.35,8.15-3.36,12.27c-0.11,0.46,0.53,1.43,1.04,1.66
	C54.88,186.88,76.17,191.45,102.02,191.62z M62.18,62.87c3.68-3.74,6.08-8.62,6.66-13.24c0.35-2.79,2.07-4.79,4.39-5.1
	c2.42-0.33,4.58,1.1,5.55,3.7c1.17,3.14,2.95,5.98,5.64,7.89c3.66,2.6,7.4,5.29,11.5,7.03c12,5.11,24.78,6.36,37.69,6.49
	c0.16,0,0.33-0.16,0.52-0.26c-0.05-8.29-1.19-16.34-4.58-23.96c-3.69-8.28-9.66-14.08-18.46-16.69c-7.78-2.31-15.65-2.1-23.53-0.54
	c-6.36,1.26-12.14,3.75-16.76,8.44C63.73,43.83,62.04,52.86,62.18,62.87z M100.55,16.71c2.14,0.2,4.3,0.33,6.43,0.62
	c12.84,1.78,22.9,7.94,29.51,19.21c5.89,10.05,7.87,21.12,7.93,32.62c0.01,1.59,0.28,2.97,1.07,4.44c0.9,1.68,1.5,3.68,1.62,5.58
	c0.49,7.64-2.05,14.28-7.26,19.88c-0.86,0.93-1.95,1.65-3.01,2.53c7.66,7.06,16,12.61,26.06,15.75c-0.06-0.48-0.04-0.74-0.12-0.96
	c-2.41-6.26-3.23-12.83-3.44-19.44c-0.37-11.98-0.52-23.98-0.65-35.96c-0.1-8.55-0.72-17.01-3.59-25.15
	c-2.85-8.09-7.51-14.78-14.92-19.35c-6.13-3.78-12.9-5.29-19.98-5.74C112.92,10.27,106.5,12.73,100.55,16.71z"/>
</svg>
