<?xml version="1.0" encoding="utf-8"?>
<svg version="1.1" id="Слой_1" xmlns="http://www.w3.org/2000/svg" xmlns:xlink="http://www.w3.org/1999/xlink" x="0px" y="0px"
	 viewBox="0 0 201.44 201.44" style="enable-background:new 0 0 201.44 201.44;" xml:space="preserve">
<path fill="#5f5f5f" d="M0.39,93.64c0.81-2.68,1.4-5.45,2.49-8.02c1.94-4.56,5.14-8.17,9.28-10.93c0.38-0.25,0.72-0.55,1.08-0.83
	C4.05,64.53,5.58,51.88,13,44.8c8.04-7.67,19.97-7.62,27.81,0.08c7.33,7.2,8.84,19.51-0.25,28.87c1.78,1.52,3.69,2.91,5.32,4.57
	c5.21,5.34,7.46,11.88,7.47,19.26c0.01,6.03-0.03,12.06,0.01,18.09c0.03,4.62-1.63,8.26-5.68,10.73c-0.49,0.3-0.81,1.26-0.82,1.92
	c-0.05,8.19-0.03,16.39-0.04,24.58c-0.01,6.65-3.52,10.2-10.17,10.23c-6.55,0.02-13.11,0.03-19.66,0
	c-6.55-0.03-10.08-3.55-10.1-10.1c-0.03-8.13-0.03-16.26,0.02-24.38c0.01-1.24-0.27-2.03-1.43-2.67c-2.81-1.55-4.05-4.3-5.08-7.16
	C0.39,110.43,0.39,102.03,0.39,93.64z M37.89,154.13c0-1.07,0-1.92,0-2.77c0-8.98,0-17.96,0.02-26.94c0.01-3.3,1.12-4.95,3.93-5.43
	c2.1-0.36,2.63-1.48,2.61-3.4c-0.06-6.03,0.01-12.06-0.05-18.09c-0.02-1.63-0.13-3.3-0.52-4.87c-2.11-8.5-10.05-14.29-18.32-13.47
	c-9.18,0.92-15.77,7.6-16.13,16.79c-0.27,6.81-0.08,13.63-0.11,20.45c0,1.37,0.59,2.15,1.99,2.47c3.53,0.81,4.43,1.99,4.44,5.59
	c0.01,9.18,0,18.36,0,27.53c0,0.69,0,1.39,0,2.11c2.34,0,4.41,0,6.65,0c0-0.82,0-1.52,0-2.23c0-7.47,0-14.95,0-22.42
	c0-4.06,1.5-6.18,4.41-6.21c2.89-0.04,4.51,2.16,4.51,6.13c0.01,7.54,0,15.08,0.01,22.62c0,0.7,0.06,1.39,0.1,2.14
	C33.63,154.13,35.63,154.13,37.89,154.13z M37.87,59.19c0.05-6.06-4.81-11.05-10.86-11.16c-6.03-0.11-11.21,5-11.22,11.06
	c0,6.02,4.96,10.98,11.02,11.01C32.91,70.12,37.82,65.28,37.87,59.19z"/>
<path fill="#5f5f5f" d="M201.84,118.82c-1.05,3.27-2.75,6-5.87,7.76c-0.45,0.25-0.59,1.36-0.59,2.08c-0.04,8.19,0,16.39-0.04,24.58
	c-0.02,4.94-2.32,8.32-6.41,9.45c-1.18,0.33-2.46,0.43-3.69,0.44c-6.55,0.04-13.11,0.04-19.66,0.01
	c-6.66-0.02-10.16-3.56-10.16-10.23c-0.01-8.13-0.03-16.26,0.03-24.38c0.01-1.17-0.29-1.84-1.34-2.49c-3.52-2.17-5.2-5.48-5.19-9.56
	c0.01-7.34-0.13-14.69,0.24-22.01c0.4-8.07,4.33-14.41,10.75-19.23c0.52-0.39,1.07-0.75,1.59-1.15c0.09-0.07,0.13-0.21,0.19-0.32
	c-9.23-9.51-7.49-21.98-0.11-29c8.01-7.61,19.66-7.59,27.67,0.04c7.4,7.07,8.96,19.71,0.18,28.63c2.78,3.04,5.71,5.92,8.24,9.12
	c2.52,3.19,3.29,7.2,4.19,11.09C201.84,102.03,201.84,110.43,201.84,118.82z M186.45,154.16c0-0.91,0-1.62,0-2.33
	c0-9.24-0.01-18.49,0.02-27.73c0.01-3.17,1.11-4.61,4.2-5.19c1.74-0.33,2.24-1.27,2.24-2.87c-0.03-6.36,0.01-12.72-0.02-19.08
	c-0.03-5.87-2.25-10.74-6.97-14.27c-5.3-3.97-11.21-4.76-17.27-2.2c-5.96,2.51-9.96,7.1-10.45,13.64
	c-0.55,7.43-0.35,14.93-0.32,22.39c0,0.76,0.96,1.95,1.72,2.2c4.07,1.37,4.73,2.13,4.73,6.43c0,8.85,0,17.7,0,26.55
	c0,0.77,0,1.53,0,2.37c2.29,0,4.35,0,6.56,0c0-0.84,0-1.55,0-2.27c0-7.47-0.01-14.95,0.01-22.42c0-0.91,0.08-1.83,0.24-2.73
	c0.3-1.63,1.34-2.66,2.89-3.15c3.16-1,5.75,1.18,5.77,4.92c0.03,7.87,0.01,15.73,0.01,23.6c0,0.69,0,1.38,0,2.12
	C182.11,154.16,184.13,154.16,186.45,154.16z M175.27,70.1c6.06,0.05,11.04-4.8,11.17-10.86c0.13-6-5.02-11.21-11.07-11.21
	c-6.03,0-10.98,4.95-11,11.01C164.33,65.13,169.19,70.05,175.27,70.1z"/>
<path fill="#5f5f5f" d="M74.39,136.67c-4.59-1.92-7.71-5.07-8.85-9.91c-0.28-1.2-0.43-2.46-0.43-3.7c0.03-10.29-0.24-20.6,0.28-30.87
	c0.62-12.3,6.74-21.64,17.1-28.23c0.72-0.46,1.46-0.87,2.19-1.31c0.11-0.07,0.19-0.18,0.4-0.39c-7.3-5.97-11.13-13.63-10.56-23.13
	c0.44-7.33,3.58-13.45,9.08-18.35c10.53-9.37,27.04-8.55,36.8,1.63c9.77,10.19,10.88,28.46-3.21,39.92
	c0.49,0.34,0.93,0.68,1.41,0.95c9.9,5.71,15.9,14.19,17.95,25.43c0.32,1.73,0.49,3.51,0.49,5.27c0.02,10.29,0.13,20.58-0.1,30.87
	c-0.11,4.97-2.9,8.65-7.29,10.88c-1.51,0.76-1.83,1.61-1.83,3.13c0.06,12.26,0.03,24.52,0.03,36.78c0,8.04-4.36,12.4-12.39,12.41
	c-9.57,0-19.14,0-28.72,0c-7.99,0-12.35-4.39-12.35-12.45c0-12.26,0-24.52,0-36.78C74.39,138.12,74.39,137.4,74.39,136.67z
	 M83.36,155.03c0,6.75,0,13.5,0,20.25c0,3.71,0.11,3.82,3.92,3.82c1.9,0,3.8,0,5.7,0c3.23-0.01,3.72-0.5,3.72-3.77
	c0-11.67-0.01-23.33,0.02-35c0-0.97,0.04-2,0.38-2.88c0.74-1.89,2.69-2.91,4.58-2.61c2.07,0.32,3.59,1.81,3.76,3.93
	c0.15,1.89,0.1,3.8,0.1,5.7c0.01,10.42,0,20.84,0.01,31.27c0,2.75,0.61,3.36,3.33,3.37c2.1,0.01,4.19,0,6.29,0
	c3.53,0,3.71-0.18,3.71-3.63c0-13.7,0-27.4,0-41.1c0-3.97,1.08-5.25,4.95-5.98c2.72-0.52,4.38-2.26,4.38-4.97
	c0.03-9.96,0.26-19.93-0.09-29.89c-0.47-13.73-11.48-25.01-24.71-25.86C87.51,66.67,74.44,78.5,74.06,94.53
	c-0.23,9.56-0.07,19.14-0.05,28.71c0.01,2.85,1.6,4.63,4.4,5.16c3.87,0.73,4.94,2.01,4.94,5.99
	C83.36,141.27,83.36,148.15,83.36,155.03z M101.13,23.15c-9.78-0.01-17.78,8-17.75,17.77c0.03,9.68,7.94,17.63,17.63,17.72
	c9.71,0.08,17.8-7.94,17.85-17.7C118.9,31.17,110.91,23.16,101.13,23.15z"/>
</svg>
