<?xml version="1.0" encoding="utf-8"?>
<svg version="1.1" id="Слой_1" xmlns="http://www.w3.org/2000/svg" xmlns:xlink="http://www.w3.org/1999/xlink" x="0px" y="0px"
	 viewBox="0 0 201.44 201.44" style="enable-background:new 0 0 201.44 201.44;" xml:space="preserve">
<path fill="#5f5f5f" d="M0.39,113.7c0.92-1.33,1.67-2.84,2.79-3.97c30.85-30.91,61.74-61.79,92.62-92.66c0.56-0.56,1.12-1.12,1.74-1.59
	c2.19-1.63,4.94-1.64,7.12,0.01c0.73,0.55,1.37,1.22,2.02,1.86c30.65,30.64,61.31,61.28,91.93,91.96c1.26,1.27,2.15,2.91,3.21,4.38
	c0,0.92,0,1.84,0,2.75c-0.22,0.39-0.44,0.77-0.65,1.16c-1.83,3.5-6.1,4.41-9.18,1.93c-0.66-0.53-1.25-1.15-1.85-1.76
	c-29.02-29.01-58.04-58.03-87.05-87.05c-0.6-0.6-1.05-1.34-1.57-2.01c-0.33-0.12-0.65-0.23-0.98-0.35c-0.43,0.74-0.71,1.62-1.3,2.21
	c-29.14,29.18-58.29,58.34-87.49,87.45c-1.16,1.16-2.65,2.26-4.19,2.69c-3.07,0.85-5.17-0.59-7.19-4.28
	C0.39,115.54,0.39,114.62,0.39,113.7z"/>
<path fill="#5f5f5f" d="M40.14,175.83c40.73,0,81.22,0,121.95,0c0-0.83,0-1.6,0-2.36c0-19.08-0.01-38.15,0.01-57.23c0-1.04,0.06-2.11,0.35-3.1
	c0.8-2.71,3.4-4.39,6.17-4.14c2.79,0.25,4.99,2.36,5.34,5.17c0.11,0.84,0.12,1.7,0.12,2.55c0.01,21.11,0.01,42.22,0,63.33
	c0,5.91-2.03,7.94-7.88,7.94c-43.4,0-86.79,0-130.19,0c-0.33,0-0.66,0-0.98,0c-4.53-0.05-6.89-2.37-6.9-6.95
	c-0.04-9.05-0.01-18.09-0.01-27.14c0-12.46-0.01-24.91,0.02-37.37c0-1.17,0.04-2.39,0.37-3.5c0.78-2.64,3.53-4.33,6.27-4.03
	c2.73,0.3,4.99,2.5,5.31,5.26c0.09,0.78,0.05,1.57,0.05,2.36c0,18.88,0,37.76,0,56.64C40.14,174.05,40.14,174.83,40.14,175.83z"/>
</svg>
