<?xml version="1.0" encoding="utf-8"?>
<svg version="1.1" id="Слой_1" xmlns="http://www.w3.org/2000/svg" xmlns:xlink="http://www.w3.org/1999/xlink" x="0px" y="0px"
	 viewBox="0 0 201.44 201.44" style="enable-background:new 0 0 201.44 201.44;" xml:space="preserve">
<path fill="#5f5f5f" d="M69.64,201.84c-5.78-1.45-9.14-6.11-13.04-9.99c-17.05-16.95-33.99-34.01-51.03-50.97c-6.32-6.29-6.54-14.47-0.19-20.86
	c15.01-15.08,30.1-30.09,45.14-45.13c12.73-12.73,25.51-25.42,38.14-38.26c2.39-2.43,4.9-3.65,8.27-3.59
	c8.51,0.16,17.02,0.18,25.53,0.28c0.64,0.01,1.27,0.13,1.38,0.15c0.78,6.51,1.55,12.79,2.25,19.07c0.07,0.65-0.12,1.43-0.44,2.02
	c-3.23,6.1-2.72,13.59,1.32,18.28c5.07,5.9,12.14,8,19.08,5.19c11.52-4.66,14.06-19.55,4.71-27.78c-0.6-0.53-1.34-1.24-1.45-1.95
	c-0.56-3.75-0.96-7.53-1.38-11.3c-0.05-0.49,0.08-1.01,0.18-2.07c4.95,0.88,9.78,1.58,14.51,2.71c1.1,0.26,2.38,1.86,2.66,3.06
	c0.88,3.74,1.49,7.57,1.88,11.4c1.09,10.75,2.27,21.5,2.93,32.28c0.45,7.31,0.19,14.67,0.07,22c-0.04,2.53-1.17,4.63-3.09,6.54
	c-23.34,23.25-46.6,46.58-69.89,69.89c-4.81,4.82-9.5,9.78-14.52,14.37c-2.14,1.96-5.01,3.14-7.54,4.67
	C73.31,201.84,71.48,201.84,69.64,201.84z M104.65,93.51c-1.14-0.66-1.92-1.12-2.7-1.57c-3.71-2.14-7.69-3.32-11.98-3.05
	c-11.44,0.7-18.83,10.82-15.79,22c1.23,4.51,3.39,8.76,5,13.17c0.84,2.32,1.79,4.7,2,7.12c0.4,4.51-3.75,7.42-7.85,5.68
	c-1.54-0.66-3.04-1.57-4.32-2.65c-3.35-2.82-5.82-6.36-7.68-10.32c-0.96-2.05-1.83-4.16-2.82-6.44c-3.12,1.88-6.06,3.84-9.18,5.44
	c-1.64,0.84-1.8,1.63-1.16,3.17c1.91,4.57,4.43,8.76,7.71,12.46c0.95,1.08,1.03,1.65-0.08,2.67c-2.05,1.87-3.93,3.93-5.78,5.82
	c2.57,2.61,4.94,5.02,7.48,7.59c2.08-2.13,4.17-4.19,6.16-6.35c0.95-1.03,1.68-1.14,3-0.47c2.72,1.36,5.52,2.77,8.45,3.48
	c12.74,3.1,24.77-8.57,22.37-20c-0.98-4.68-2.94-9.16-4.58-13.69c-1.18-3.25-2.93-6.31-2.87-9.91c0.05-2.55,1.68-4.55,4.16-4.56
	c1.49,0,3.15,0.41,4.44,1.15c3.51,1.99,5.91,5.15,7.91,8.56c1.31,2.24,2.35,4.63,3.62,7.15c3.53-2.04,7.02-4.07,10.58-6.13
	c-1.63-5.3-4.85-9.47-8.63-13.92c2.31-2.14,4.51-4.17,6.61-6.12c-2.43-2.49-4.8-4.91-7.29-7.46
	C109.13,88.75,106.9,91.12,104.65,93.51z"/>
<path fill="#5f5f5f" d="M201.84,40.92c-0.36,4.04-0.47,8.12-1.14,12.1c-1.02,6.05-2.12,12.12-3.74,18.03c-2.05,7.44-4.96,14.6-8.77,21.37
	c-1.44,2.56-4,3.78-6.76,3.14c-2.52-0.58-4.38-2.71-4.33-5.37c0.02-1.25,0.39-2.61,0.97-3.72c7.63-14.51,11.62-29.96,11.86-46.34
	c0.12-8.24-2.1-15.7-8.27-21.53c-8.83-8.34-23.84-7.87-32.44,0.79c-6.73,6.77-8.22,14.91-6.69,23.93
	c0.95,5.61,1.93,11.22,2.95,16.82c0.71,3.91-0.3,6.54-3.15,7.84c-2.99,1.37-6.85-0.03-7.67-3.2c-1.18-4.55-2.02-9.19-2.81-13.83
	c-0.66-3.87-1.17-7.77-1.54-11.68c-1.43-15.32,8.18-30.61,22.67-35.96c11.64-4.3,22.84-3.29,33.12,3.79
	c8.79,6.06,13.36,14.85,15.02,25.25c0.31,1.93,0.48,3.87,0.71,5.81C201.84,39.08,201.84,40,201.84,40.92z"/>
</svg>
