<?xml version="1.0" encoding="utf-8"?>
<svg version="1.1" id="Слой_1" xmlns="http://www.w3.org/2000/svg" xmlns:xlink="http://www.w3.org/1999/xlink" x="0px" y="0px"
	 viewBox="0 0 201.44 201.44" style="enable-background:new 0 0 201.44 201.44;" xml:space="preserve">
<path fill="#5f5f5f" d="M201.84,115.28c-0.91,3.25-1.63,6.57-2.76,9.74c-2.06,5.76-5.56,10.67-9.97,14.87c-1.46,1.39-1.99,2.8-1.98,4.78
	c0.02,7.8-0.13,15.6-0.22,23.41c-0.05,4.2-2.97,5.96-6.73,4c-8.69-4.55-17.39-9.08-26.02-13.75c-1.68-0.91-3.3-1.06-5.08-0.91
	c-17.72,1.53-34.07-2.22-48.53-12.88c-5.1-3.76-9.41-8.35-12.53-13.93c-0.72-1.3-1.36-1.76-2.89-1.18c-9.63,3.66-19.68,5-29.87,4.17
	c-3.9-0.32-6.92,0.67-10.1,2.5c-7.3,4.22-14.72,8.26-22.08,12.37c-0.57,0.32-1.13,0.68-1.72,0.94c-3.06,1.35-5.95-0.48-6-3.84
	c-0.12-8.39-0.24-16.78-0.24-25.18c0-1.78-0.49-3.03-1.78-4.27c-5.83-5.6-9.91-12.28-11.88-20.18c-0.36-1.43-0.71-2.85-1.06-4.28
	c0-3.02,0-6.03,0-9.05c0.47-1.95,0.87-3.93,1.43-5.85c3.5-11.96,11.35-20.47,21.76-26.75c13.02-7.85,27.28-10.61,42.34-9.49
	c14.05,1.05,26.8,5.55,37.76,14.6c4.38,3.62,8.03,7.88,10.86,12.83c0.22,0.39,0.5,0.74,0.69,1.03c4-1.1,7.83-2.41,11.77-3.2
	c8.06-1.63,16.19-1.97,24.4-0.96c9.74,1.19,18.89,4.05,27.25,9.16c10.38,6.34,18.25,14.81,21.74,26.77
	c0.56,1.93,0.95,3.91,1.42,5.86C201.84,109.51,201.84,112.39,201.84,115.28z M107.58,72.67c-0.18-0.34-0.29-0.57-0.42-0.8
	C101.99,63.08,94.19,57.42,85,53.55c-12.56-5.29-25.63-6.22-38.87-3.46c-12.23,2.55-23.02,7.95-30.76,18.14
	c-6.32,8.31-8.39,17.57-5.2,27.74c1.96,6.24,5.6,11.37,10.48,15.61c2.05,1.78,2.94,3.79,2.9,6.5c-0.09,6.23,0.01,12.46,0.04,18.69
	c0,0.54,0.08,1.07,0.14,1.75c0.79-0.42,1.36-0.73,1.93-1.04c7.03-3.92,14.03-7.87,21.1-11.72c1.09-0.59,2.52-1.08,3.7-0.91
	c6.48,0.92,12.95,0.99,19.38-0.16c4.71-0.84,9.35-2.11,14.03-3.19C79.34,104.08,86.57,84.46,107.58,72.67z M178.64,161.81
	c0-0.91,0-1.54,0-2.17c0.03-6.16,0.07-12.33,0.07-18.49c0-2.03,0.72-3.63,2.22-5.01c1.64-1.5,3.26-3.05,4.7-4.74
	c8.79-10.25,10.34-23.11,4.02-34.85c-4.45-8.27-11.48-13.89-19.84-17.82c-15.09-7.09-30.74-7.96-46.65-3.33
	c-11.59,3.37-21.38,9.49-27.88,20.02c-3.56,5.76-5.06,12.08-4.28,18.78c1.09,9.33,5.87,16.73,13.07,22.5
	c13.6,10.87,29.32,14.09,46.32,12.21c1.89-0.21,3.57-0.11,5.29,0.82c5.92,3.21,11.9,6.31,17.86,9.44
	C175.17,160.02,176.78,160.84,178.64,161.81z"/>
<path fill="#5f5f5f" d="M142.25,115.73c7.66,0,15.32-0.02,22.98,0.01c3.4,0.01,5.3,1.7,5.16,4.5c-0.1,1.93-1.16,3.15-2.97,3.66
	c-0.74,0.21-1.55,0.29-2.32,0.29c-15.26,0.02-30.51,0.02-45.77,0.01c-2.87,0-4.64-1.04-5.2-2.95c-0.9-3.06,1.24-5.49,4.95-5.51
	c6.88-0.03,13.75-0.01,20.63-0.01C140.55,115.73,141.4,115.73,142.25,115.73z"/>
<path fill="#5f5f5f" d="M142.23,105.46c-8,0-16,0.03-24-0.02c-3.07-0.02-4.88-2.41-4.13-5.24c0.48-1.82,2.08-2.98,4.32-3.01
	c3.21-0.04,6.43-0.01,9.64-0.01c12.46,0,24.92-0.01,37.38,0c2.93,0,4.73,1.37,4.93,3.68c0.24,2.72-1.45,4.57-4.34,4.59
	C158.1,105.49,150.17,105.47,142.23,105.46z"/>
</svg>
