<svg id="Слой_1" data-name="Слой 1" xmlns="http://www.w3.org/2000/svg" viewBox="0 0 563.84 194.24"><defs><style>.cls-1{fill:#fff;}.cls-2{fill:#44abe1;}</style></defs><title>folder2</title><path class="cls-1" d="M554.87,108.28c0,3.06,0,6.11,0,9.17,0,1.42,0,1.42-1.49,1.44h-1.16c-24,0-47.94-.06-71.91,0-153,.4-305.95,0-458.93.17-2.76,0-2.38-.2-2.39,2.43,0,5.55,0,11.1,0,16.66,0,1.55,0,1.57-1.54,1.57H8.27c0-.45-.06-.89-.06-1.33V70.75a62.18,62.18,0,0,1,.63-8.63A59.59,59.59,0,0,1,19.43,35.25q19.14-26.56,52-27.07c2.67,0,5.34,0,8,0,35.59.17,71.18.12,106.77.22,85.65.23,171.3.07,257,.08,2.55,0,5.1,0,7.66.28a61.7,61.7,0,0,1,26.09,8.51,54,54,0,0,1,14.44,12c3.42,4.16,6.76,8.39,10.14,12.6Z" transform="translate(-0.62 -0.88)"/><path class="cls-2" d="M554.87,108.28,501.52,41.87c-3.38-4.21-6.72-8.44-10.14-12.6a54,54,0,0,0-14.44-12,61.7,61.7,0,0,0-26.09-8.51c-2.56-.24-5.11-.28-7.66-.28-85.66,0-171.31.15-257-.08-35.59-.1-71.18,0-106.77-.22-2.67,0-5.34-.07-8,0q-32.82.46-52,27.07A59.59,59.59,0,0,0,8.84,62.12a62.18,62.18,0,0,0-.63,8.63v67.66c0,.44,0,.88.06,1.33,0,.66-.07,1.33-.07,2v51.33c0,2.17.32,2.05-2.07,2.05-1.5,0-3,0-4.5,0-.68,0-1.06-.2-1-1,0-.38,0-.78,0-1.16V71.34a70.5,70.5,0,0,1,54.77-69A54.52,54.52,0,0,1,68,.88q188.39,0,376.78,0a69.32,69.32,0,0,1,41.75,13.62A65.91,65.91,0,0,1,497,24c4.88,5.49,9.09,11.49,13.7,17.19q26.42,32.67,52.64,65.49c.34.41.64.85,1.17,1.56Z" transform="translate(-0.62 -0.88)"/></svg>