<svg id="Слой_1" data-name="Слой 1" xmlns="http://www.w3.org/2000/svg" viewBox="0 0 112.01 35.04"><defs><style>.cls-1{fill:#fefefe;}.cls-2{fill:#1caff7;}</style></defs><title>folder</title><path class="cls-1" d="M109.69,35.06H1.56c-.44-.78-.17-1.62-.22-2.43,0-6-.07-12,0-18.06A13.59,13.59,0,0,1,5,5.39a12.61,12.61,0,0,1,6.5-3.57,18.49,18.49,0,0,1,4.46-.5c23.55,0,47.11,0,70.66,0a14.84,14.84,0,0,1,9.8,3.32,9.15,9.15,0,0,1,1.2,1.21c3.84,4.77,7.61,9.6,11.44,14.38a3.57,3.57,0,0,1,.84,1.38,8,8,0,0,1,.06,1.47q0,5.34,0,10.68A1.76,1.76,0,0,1,109.69,35.06Z" transform="translate(-0.01 -0.01)"/><path class="cls-2" d="M109.71,21.56q-3.22-4.11-6.46-8.21c-1.84-2.33-3.71-4.63-5.54-7A12.33,12.33,0,0,0,90.27,2a22.5,22.5,0,0,0-5-.49c-23.48,0-46.95,0-70.43,0a13.33,13.33,0,0,0-9.25,3.5,12.67,12.67,0,0,0-3.74,7.05,21.35,21.35,0,0,0-.32,4.07q0,8.17,0,16.36a1.29,1.29,0,0,1-1.53,0V13A16.08,16.08,0,0,1,.68,9.35,13.86,13.86,0,0,1,11,.25C11.66.08,12.37.17,13,0H88.59a23,23,0,0,1,4,.69,14.1,14.1,0,0,1,6.93,5c4,5,7.94,10.05,12,15,.21.27.34.58.52.86v.15A2.14,2.14,0,0,1,109.71,21.56Z" transform="translate(-0.01 -0.01)"/></svg>