<?xml version="1.0" encoding="utf-8"?>
<svg version="1.1" id="Слой_1" xmlns="http://www.w3.org/2000/svg" xmlns:xlink="http://www.w3.org/1999/xlink" x="0px" y="0px"
	 viewBox="0 0 595.28 418.79" style="enable-background:new 0 0 595.28 418.79;" xml:space="preserve">
<style type="text/css">
	.st0{fill:#C81F23;}
	.st1{fill:#FEFEFE;}
	.st2{fill:#E8E1E1;}
</style>
<path class="st0" d="M345.98,419.61c-27.18,0-54.36,0-81.54,0c-0.33-0.92-1.13-0.55-1.74-0.57c-12.48-0.27-24.96,0.39-37.44-0.54
	c-8.67-0.64-17.37,0.13-26.08-0.51c-8.75-0.64-17.58,0.01-26.36-0.69c-5.28-0.42-10.59-0.2-15.89-0.45
	c-10.39-0.49-20.79-0.7-31.19-1.25c-6.62-0.35-13.23-0.77-19.84-1.13c-7.36-0.4-14.6-1.55-21.89-2.39
	c-8.95-1.04-17.71-2.76-26.21-5.84c-9.59-3.47-18.02-8.82-25.4-15.74c-8.35-7.84-13.29-17.84-17.29-28.41
	c-6.16-16.27-8.82-33.24-10.44-50.44c-0.64-6.76-1.46-13.52-1.68-20.29c-0.28-8.37-1.02-16.71-1.38-25.07
	c-0.29-6.56-0.3-13.12-0.44-19.68c-0.01-0.47,0.05-0.99-0.58-1.15c0-23.69,0-47.37,0-71.06c0.92-0.33,0.57-1.14,0.57-1.73
	c-0.08-9.74,0.43-19.44,1.1-29.16c0.57-8.22,1.12-16.44,1.76-24.66c0.63-8.1,1.51-16.16,2.35-24.23
	c1.06-10.12,3.41-19.92,6.48-29.57c4.84-15.21,11.49-29.16,24.4-39.6C49.58,15.46,63.51,9.85,79,7.87
	c8.81-1.13,17.69-1.86,26.56-2.32c7.1-0.37,14.2-0.88,21.29-1.15c9.04-0.35,18.08-0.59,27.11-1.22c5.57-0.39,11.16,0.07,16.77-0.5
	c6.51-0.67,13.09,0,19.67-0.59c7.97-0.72,16-0.04,24.04-0.54c12.05-0.76,24.18-0.48,36.26-0.55c37.32-0.24,74.65-0.71,111.96,0.43
	c7.82,0.24,15.63-0.08,23.47,0.42c9.53,0.61,19.13,0.06,28.69,0.72c4.9,0.34,9.83,0.29,14.73,0.43c11.76,0.33,23.51,0.87,35.26,1.34
	c2.68,0.11,5.38,0.34,8.03,0.43c10.67,0.36,21.3,1.09,31.93,1.9c4.67,0.35,9.37,0.55,14,1.22c10.64,1.53,20.87,4.55,30.19,9.99
	c8.8,5.14,16.55,11.59,22.54,19.98c7.59,10.64,11.55,22.82,15.03,35.2c2.18,7.75,3.59,15.67,4.61,23.65
	c0.66,5.22,0.6,10.53,1.3,15.74c1.16,8.64,1.49,17.34,2.15,26c0.42,5.56,1.1,11.14,0.7,16.75c-0.03,0.47-0.05,0.99,0.57,1.15
	c0,35.72,0,71.45,0,107.17c-0.62,0.17-0.6,0.69-0.57,1.15c0.41,5.8-0.54,11.56-0.67,17.34c-0.07,3.25-0.34,6.52-0.59,9.77
	c-0.57,7.71-1.47,15.39-2.25,23.08c-0.58,5.79-0.82,11.65-1.85,17.35c-2.05,11.33-5.04,22.43-9.24,33.18
	c-5.14,13.17-13.16,24.16-24.65,32.51c-11.59,8.42-24.75,12.89-38.79,14.63c-9.68,1.2-19.44,1.85-29.19,2.34
	c-7.1,0.35-14.2,0.87-21.3,1.14c-9.33,0.37-18.67,0.61-27.99,1.23c-5.48,0.37-10.97-0.08-16.48,0.49c-6.7,0.7-13.51,0.44-20.25,0.53
	c-16.26,0.2-32.52,1.17-48.79,0.76c-1.94-0.05-3.88-0.02-5.82,0C346.9,419.04,346.23,418.82,345.98,419.61z M245.55,125.32
	c-0.31-0.17-0.62-0.34-0.92-0.5l-0.08-0.13c0,0-0.15,0.03-0.15,0.03c-0.3-0.17-0.6-0.34-0.9-0.51c-1.84-1.17-3.67-2.38-5.77-2.94
	c0,55.09,0,110.01,0,165.23c1.23-0.58,2.1-0.96,2.95-1.4c27.51-14.27,55.02-28.54,82.53-42.82c17.88-9.28,35.76-18.55,53.64-27.83
	c6.53-3.39,13.05-6.78,19.93-10.36c-23.06-12.05-45.59-23.84-68.13-35.61c-20.66-10.79-41.33-21.55-62.01-32.31
	c-6.94-3.61-13.89-7.17-20.84-10.76l-0.09-0.13L245.55,125.32z"/>
<path class="st1" d="M376.84,214.45c-17.88,9.28-35.76,18.55-53.64,27.83c-27.51,14.27-55.02,28.55-82.53,42.82
	c-0.85,0.44-1.72,0.82-2.95,1.4c0-55.22,0-110.14,0-165.23c2.1,0.57,3.93,1.78,5.77,2.94c0.3,0.17,0.6,0.34,0.9,0.51l0.15-0.03
	c0,0,0.08,0.13,0.08,0.13c0.31,0.17,0.62,0.34,0.92,0.5l0.16-0.04c0,0,0.09,0.13,0.09,0.13c0.37,1.52,1.78,1.97,2.88,2.7
	C290.45,156,332.23,183.86,374,211.74C375.08,212.46,376.53,212.88,376.84,214.45z"/>
<path class="st2" d="M376.84,214.45c-0.31-1.57-1.76-1.99-2.84-2.72c-41.77-27.88-83.55-55.74-125.32-83.62
	c-1.09-0.73-2.5-1.18-2.88-2.7c6.95,3.58,13.91,7.15,20.84,10.76c20.67,10.76,41.35,21.53,62.01,32.31
	c22.54,11.77,45.07,23.56,68.13,35.61C389.9,207.67,383.37,211.06,376.84,214.45z"/>
</svg>
