<?xml version="1.0" encoding="utf-8"?>
<svg version="1.1" id="Слой_1" xmlns="http://www.w3.org/2000/svg" xmlns:xlink="http://www.w3.org/1999/xlink" x="0px" y="0px"
	 viewBox="0 0 27.6 27.84" style="enable-background:new 0 0 27.6 27.84;" xml:space="preserve">
<path stroke="#ffffff" stroke-width="0.2" fill="#FFFFFF" d="M0.26,13.9c0-7.57,6-13.54,13.58-13.53c7.48,0.02,13.49,6.04,13.49,13.52c0,7.52-6.04,13.54-13.6,13.57
	C6.33,27.49,0.26,21.38,0.26,13.9z M26.15,14c0-6.95-5.37-12.39-12.24-12.42C6.97,1.56,1.46,7.02,1.46,13.93
	c0,6.9,5.52,12.38,12.45,12.37C20.69,26.29,26.15,20.81,26.15,14z"/>
<path fill="#FFFFFF" class="st0" d="M26.15,14c0,6.81-5.46,12.3-12.24,12.31C6.98,26.31,1.46,20.83,1.46,13.93c0-6.91,5.52-12.37,12.46-12.35
	C20.79,1.6,26.16,7.05,26.15,14z M11.93,13.93c-1.39,1.35-2.68,2.59-3.95,3.85c-0.68,0.67-1.11,1.43-0.34,2.29
	c0.64,0.72,1.45,0.59,2.38-0.32c0.97-0.95,1.96-1.88,2.86-2.9c0.71-0.8,1.23-0.91,1.99-0.04c1,1.14,2.12,2.17,3.22,3.22
	c0.65,0.62,1.41,0.84,2.12,0.12c0.73-0.73,0.45-1.43-0.2-2.08c-1.13-1.13-2.2-2.32-3.36-3.42c-0.61-0.59-0.57-1,0.02-1.57
	c1.23-1.2,2.46-2.41,3.54-3.74c0.29-0.35,0.3-1.33,0.02-1.66c-0.3-0.35-1.12-0.4-1.67-0.31c-0.4,0.07-0.75,0.55-1.09,0.89
	c-1.15,1.15-2.27,2.32-3.47,3.55c-0.47-0.43-0.79-0.72-1.1-1.02c-1.06-1.03-2.08-2.1-3.17-3.1c-0.63-0.57-1.43-0.9-2.13-0.16
	C6.92,8.26,7.23,8.97,7.87,9.63C9.18,10.97,10.45,12.35,11.93,13.93z"/>
<path fill="#8d8d8d" d="M11.93,13.93c-1.49-1.58-2.76-2.96-4.06-4.3C7.23,8.97,6.92,8.26,7.61,7.54c0.7-0.74,1.51-0.41,2.13,0.16
	c1.09,0.99,2.11,2.06,3.17,3.1c0.31,0.3,0.63,0.59,1.1,1.02c1.2-1.23,2.32-2.4,3.47-3.55c0.33-0.34,0.69-0.82,1.09-0.89
	c0.55-0.09,1.37-0.03,1.67,0.31c0.28,0.33,0.27,1.3-0.02,1.66c-1.09,1.32-2.31,2.53-3.54,3.74c-0.58,0.57-0.63,0.98-0.02,1.57
	c1.15,1.1,2.23,2.29,3.36,3.42c0.65,0.65,0.93,1.34,0.2,2.08c-0.72,0.72-1.47,0.5-2.12-0.12c-1.1-1.05-2.21-2.08-3.22-3.22
	c-0.76-0.87-1.28-0.75-1.99,0.04c-0.9,1.02-1.89,1.95-2.86,2.9c-0.92,0.91-1.74,1.03-2.38,0.32c-0.78-0.87-0.35-1.62,0.34-2.29
	C9.26,16.52,10.54,15.28,11.93,13.93z"/>
</svg>
