<?xml version="1.0" encoding="utf-8"?>
<!-- Generator: Adobe Illustrator 23.0.1, SVG Export Plug-In . SVG Version: 6.00 Build 0)  -->
<svg version="1.1" id="Слой_1" xmlns="http://www.w3.org/2000/svg" xmlns:xlink="http://www.w3.org/1999/xlink" x="0px" y="0px"
	 viewBox="0 0 27.6 27.84" style="enable-background:new 0 0 27.6 27.84;" xml:space="preserve">
<path stroke="#ffffff" stroke-width="0.2" fill="#00c924" class="st0" d="M0.31,11.45C1.21,3.83,8.58-0.74,16.16,0.44c7.06,1.1,12.04,7.89,11.21,15.3c-0.67,6-6.29,11.39-12.06,11.81
	c-8.77,0.64-13.39-5.41-14.8-10.24C0.12,15.95,0,14.05,0.31,11.45z M6.3,18.18c1.3-0.78,2.49-1.47,3.99-0.98
	c0.51,0.17,0.52-0.22,0.56-0.62c0.3-3.19,2.47-5.46,5.63-5.82c0.77-0.09,0.92-0.22,0.69-1C15.89,5.34,9.9,3.63,6.03,6.61
	c-2.83,2.18-3.16,6.21-0.56,8.55C6.45,16.04,7.03,16.78,6.3,18.18z M21.3,22.02c-0.37-1.18,0.19-1.68,0.73-2.24
	c1.59-1.66,1.78-4.03,0.46-5.91c-1.31-1.86-3.18-2.55-5.39-2.44c-2.3,0.12-4.05,1.17-5.02,3.27c-0.79,1.7-0.5,3.36,0.7,4.79
	c1.49,1.79,3.39,2.62,5.72,2.06C19.39,21.34,20.2,21.29,21.3,22.02z"/>
<path fill="#ffffff" class="st1" d="M6.3,18.18c0.72-1.4,0.14-2.13-0.83-3.01c-2.6-2.35-2.27-6.37,0.56-8.55c3.87-2.98,9.85-1.27,11.14,3.15
	c0.23,0.78,0.07,0.91-0.69,1c-3.15,0.36-5.32,2.63-5.63,5.82c-0.04,0.4-0.05,0.79-0.56,0.62C8.79,16.71,7.61,17.4,6.3,18.18z"/>
<path fill="#ffffff" class="st1" d="M21.3,22.02c-1.1-0.73-1.92-0.69-2.81-0.47c-2.33,0.56-4.23-0.27-5.72-2.06c-1.2-1.44-1.49-3.09-0.7-4.79
	c0.98-2.1,2.72-3.15,5.02-3.27c2.22-0.11,4.08,0.58,5.39,2.44c1.32,1.88,1.13,4.25-0.46,5.91C21.49,20.34,20.93,20.84,21.3,22.02z"
	/>
</svg>
