<?xml version="1.0" encoding="utf-8"?>
<svg version="1.1" id="Слой_1" xmlns="http://www.w3.org/2000/svg" xmlns:xlink="http://www.w3.org/1999/xlink" x="0px" y="0px"
	 viewBox="0 0 27.6 27.84" style="enable-background:new 0 0 27.6 27.84;" xml:space="preserve">
<path stroke="#ffffff" stroke-width="0.2" fill="#018ccd" d="M27.39,13.9c0.01,7.6-6.01,13.65-13.61,13.65c-7.52,0-13.55-6.03-13.56-13.58C0.2,6.4,6.29,0.27,13.82,0.29
	C21.31,0.31,27.37,6.39,27.39,13.9z M20.6,8.78c0.03-0.88-0.5-1.19-1.5-0.8C15.05,9.54,11,11.13,6.95,12.71
	c-0.4,0.15-0.93,0.26-0.9,0.82c0.03,0.55,0.57,0.68,0.98,0.71c2.22,0.2,3.26,1.52,3.54,3.6c0.02,0.12,0.07,0.23,0.11,0.34
	c0.47,1.45,0.85,1.55,1.93,0.49c0.14-0.14,0.3-0.27,0.42-0.43c0.5-0.68,0.99-0.6,1.6-0.11c0.71,0.58,1.45,1.13,2.22,1.63
	c0.85,0.56,1.32,0.38,1.58-0.6c0.2-0.73,0.32-1.48,0.47-2.22C19.47,14.22,20.04,11.49,20.6,8.78z"/>
<path fill="#FFFFFF" class="st0" d="M20.6,8.78c-0.57,2.71-1.14,5.44-1.71,8.17c-0.16,0.74-0.27,1.49-0.47,2.22c-0.27,0.98-0.74,1.16-1.58,0.6
	c-0.77-0.5-1.51-1.04-2.22-1.63c-0.6-0.5-1.1-0.57-1.6,0.11c-0.12,0.16-0.28,0.29-0.42,0.43c-1.08,1.06-1.46,0.96-1.93-0.49
	c-0.04-0.11-0.09-0.23-0.11-0.34c-0.28-2.08-1.32-3.4-3.54-3.6c-0.41-0.04-0.95-0.16-0.98-0.71c-0.03-0.56,0.5-0.66,0.9-0.82
	c4.05-1.59,8.1-3.17,12.15-4.73C20.1,7.6,20.63,7.9,20.6,8.78z M17.58,10.25c-2.37,1.46-4.49,2.78-6.62,4.1
	c-0.33,0.21-0.56,0.44-0.42,0.87c0.22,0.66,0.42,1.32,0.62,1.95C12.38,14.05,15.52,12.89,17.58,10.25z"/>
<path fill="#018ccd" d="M17.58,10.25c-2.05,2.63-5.19,3.8-6.42,6.92c-0.2-0.63-0.41-1.29-0.62-1.95c-0.14-0.43,0.08-0.67,0.42-0.87
	C13.08,13.04,15.21,11.72,17.58,10.25z"/>
</svg>
