<?xml version="1.0" encoding="utf-8"?>
<svg version="1.1" id="Слой_1" xmlns="http://www.w3.org/2000/svg" xmlns:xlink="http://www.w3.org/1999/xlink" x="0px" y="0px"
	 viewBox="0 0 27.84 28.44" style="enable-background:new 0 0 27.84 28.44;" xml:space="preserve">
<g>
	<path stroke="#ffffff" stroke-width="0.2" fill="#7d529e" d="M0.42,14.1C0.45,6.54,6.6,0.46,14.15,0.51c7.54,0.05,13.59,6.22,13.53,13.79c-0.06,7.57-6.17,13.56-13.79,13.5
		C6.38,27.75,0.39,21.65,0.42,14.1z M18.27,20.57c0.36-0.29,1.2-0.7,1.54-1.37c0.19-0.37-0.4-1.22-0.77-1.76
		c-0.26-0.37-0.75-0.58-1.13-0.88c-0.75-0.59-1.44-0.65-2.04,0.21c-0.53,0.75-1.22,0.8-1.85,0.23c-0.94-0.85-1.83-1.76-2.66-2.72
		c-0.49-0.56-0.4-1.22,0.24-1.67c0.98-0.69,0.82-1.43,0.17-2.23c-0.3-0.37-0.52-0.84-0.89-1.12c-0.44-0.34-1.1-0.83-1.48-0.71
		C8.84,8.73,8.31,9.34,8.02,9.9c-0.21,0.4-0.09,1.02,0.02,1.52c0.54,2.39,1.91,4.31,3.66,5.94C13.42,18.95,15.35,20.23,18.27,20.57z
		 M14.08,8.94c1.21,0.59,2.68,0.93,3.57,1.84c0.91,0.91,1.25,2.38,1.84,3.6c0.5-1.28-0.08-3.12-1.42-4.32
		C16.91,9.02,15.57,8.55,14.08,8.94z M13.88,10.51c2.53,0.23,3.82,1.57,4.07,4.06c0.67-1.15,0.34-2.42-0.65-3.41
		C16.29,10.14,15.1,9.82,13.88,10.51z M16.77,14.17c0.48-1.03,0.02-1.71-0.64-2.24c-0.53-0.42-1.13-0.84-2.04-0.16
		C15.57,11.97,16.3,12.91,16.77,14.17z"/>
	<path stroke="#ffffff" stroke-width="0.2" fill="#FFFFFF" class="st0" d="M18.27,20.57c-2.92-0.34-4.86-1.61-6.57-3.22c-1.75-1.63-3.12-3.55-3.66-5.94c-0.11-0.49-0.23-1.12-0.02-1.52
		c0.29-0.55,0.81-1.16,1.37-1.34c0.39-0.12,1.04,0.37,1.48,0.71c0.37,0.28,0.59,0.75,0.89,1.12c0.65,0.8,0.81,1.54-0.17,2.23
		c-0.64,0.45-0.73,1.1-0.24,1.67c0.83,0.95,1.73,1.87,2.66,2.72c0.63,0.57,1.32,0.52,1.85-0.23c0.61-0.86,1.29-0.81,2.04-0.21
		c0.38,0.3,0.87,0.51,1.13,0.88c0.37,0.54,0.96,1.39,0.77,1.76C19.47,19.87,18.63,20.28,18.27,20.57z"/>
	<path stroke="#ffffff" stroke-width="0.2" fill="#FFFFFF" class="st0" d="M14.08,8.94c1.49-0.39,2.83,0.07,3.99,1.12c1.34,1.2,1.92,3.04,1.42,4.32c-0.59-1.22-0.93-2.69-1.84-3.6
		C16.76,9.88,15.3,9.53,14.08,8.94z"/>
	<path stroke="#ffffff" stroke-width="0.2" fill="#FFFFFF" class="st0" d="M13.88,10.51c1.21-0.69,2.41-0.37,3.42,0.65c0.98,0.99,1.31,2.26,0.65,3.41
		C17.7,12.08,16.41,10.74,13.88,10.51z"/>

</g>
</svg>
