<?xml version="1.0" encoding="utf-8"?>
<svg version="1.1" id="Слой_1" xmlns="http://www.w3.org/2000/svg" xmlns:xlink="http://www.w3.org/1999/xlink" x="0px" y="0px"
	 viewBox="0 0 27.88 27.84" style="enable-background:new 0 0 27.88 27.84;" xml:space="preserve">
<g>
	<path stroke="#ffffff" stroke-width="0.2" fill="#00c924" d="M14.06,0.73c7.48,0.01,13.51,6.03,13.44,13.51c-0.06,7.04-5.31,13.38-13.44,13.4C5.72,27.66,0.52,21,0.56,14.06
		C0.6,6.66,6.6,0.72,14.06,0.73z M6.84,20.92c0.11,0.07,0.22,0.14,0.33,0.22c0.33-0.06,0.68-0.09,1-0.2
		c1.53-0.48,2.97-0.59,4.64-0.16c4.89,1.28,9.65-3.31,8.75-8.22c-0.72-3.91-4.3-6.66-8.04-6.15c-3.37,0.45-7.05,3.31-6.34,8.13
		C7.5,16.74,7.96,18.81,6.84,20.92z"/>
	<path fill="#ffffff" class="st0" d="M6.84,20.92c1.12-2.11,0.66-4.18,0.34-6.37c-0.71-4.82,2.97-7.68,6.34-8.13c3.74-0.5,7.32,2.25,8.04,6.15
		c0.9,4.9-3.86,9.49-8.75,8.22c-1.67-0.44-3.11-0.33-4.64,0.16c-0.32,0.1-0.67,0.13-1,0.2C7.06,21.07,6.95,21,6.84,20.92z
		 M9.66,18.68c0.67,0.07,1.59,0.01,2.4,0.28c2.22,0.72,4.28,0.59,6.04-1.02c1.74-1.59,2.31-3.58,1.67-5.87
		c-0.86-3.07-4.24-4.78-7.34-3.71c-2.96,1.01-4.53,4.41-3.47,7.3C9.31,16.63,9.44,17.69,9.66,18.68z"/>
	<path fill="#00c924" d="M9.66,18.68c-0.22-0.99-0.35-2.05-0.71-3.02c-1.06-2.9,0.52-6.29,3.47-7.3c3.1-1.06,6.48,0.64,7.34,3.71
		c0.64,2.29,0.07,4.28-1.67,5.87c-1.76,1.61-3.81,1.75-6.04,1.02C11.25,18.69,10.33,18.75,9.66,18.68z M16.27,17.46
		c0.58-0.45,1.21-0.86,1.7-1.4c0.14-0.16-0.02-0.92-0.22-1.01c-0.6-0.27-1.46-0.66-1.9-0.42c-0.69,0.39-1.17,0.44-1.69-0.06
		c-0.56-0.54-1.36-0.89-0.89-2.06c0.21-0.51-0.34-1.38-0.68-2.02c-0.08-0.15-0.89-0.17-1.03,0.01c-0.38,0.49-0.61,1.12-0.84,1.71
		c-0.06,0.16,0.02,0.39,0.07,0.58C11.29,14.75,14.07,17.05,16.27,17.46z"/>
	<path fill="#ffffff" class="st0" d="M16.27,17.46c-2.2-0.4-4.97-2.71-5.48-4.65c-0.05-0.19-0.13-0.42-0.07-0.58c0.24-0.59,0.46-1.21,0.84-1.71
		c0.14-0.18,0.95-0.16,1.03-0.01c0.34,0.64,0.88,1.51,0.68,2.02c-0.47,1.16,0.33,1.52,0.89,2.06c0.52,0.49,0.99,0.45,1.69,0.06
		c0.43-0.24,1.3,0.15,1.9,0.42c0.2,0.09,0.36,0.85,0.22,1.01C17.48,16.6,16.85,17,16.27,17.46z"/>
</g>
</svg>
